<?xml version="1.0" encoding="UTF-8" standalone="no"?>
<svg
   id="back"
   width="426mm"
   height="226mm"
   version="1.1"
   sodipodi:docname="back v12.1 with holes.svg"
   inkscape:version="1.2.2 (732a01da63, 2022-12-09)"
   xmlns:inkscape="http://www.inkscape.org/namespaces/inkscape"
   xmlns:sodipodi="http://sodipodi.sourceforge.net/DTD/sodipodi-0.dtd"
   xmlns="http://www.w3.org/2000/svg"
   xmlns:svg="http://www.w3.org/2000/svg">
  <defs
     id="defs507" />
  <sodipodi:namedview
     id="namedview505"
     pagecolor="#ffffff"
     bordercolor="#000000"
     borderopacity="0.25"
     inkscape:showpageshadow="2"
     inkscape:pageopacity="0.0"
     inkscape:pagecheckerboard="0"
     inkscape:deskcolor="#d1d1d1"
     showgrid="false"
     inkscape:zoom="1.0727273"
     inkscape:cx="1103.2627"
     inkscape:cy="408.77119"
     inkscape:window-width="1845"
     inkscape:window-height="1212"
     inkscape:window-x="-6"
     inkscape:window-y="-6"
     inkscape:window-maximized="1"
     inkscape:current-layer="back"
     inkscape:document-units="mm" />
  <!--23mm -->
  <polyline
     points="  10,10  10,20  13,20  13,40  10,40  10,60  13,60  13,80  10,80  10,100  13,100  13,120  10,120  10,140  13,140  13,160  10,160  10,180  13,180  13,200  10,200   10,213  33,213  33,216  73,216  73,213  113, 213  113, 216  153, 216  153, 213  193, 213  193, 216  233, 216  233, 213  273, 213  273, 216  313, 216  313, 213  353, 213  353, 216  393, 216  393, 213   416, 213  416, 200  413, 200  413, 180  416, 180  416, 160  413, 160  413, 140  416, 140  416, 120  413, 120  413, 100  416, 100  416, 80  413, 80  413, 60  416, 60  416, 40  413, 40  413, 20  416, 20  416, 10   393, 10  393, 13  353, 13  353, 10  313, 10  313, 13  273, 13  273, 10  233, 10  233, 13  193, 13  193, 10  153, 10  153, 13  113, 13  113, 10  73, 10  73, 13  33, 13  33, 10  10, 10"
     id="polyline500"
     transform="scale(3.7795276)" />
  <circle
     style="fill:#ffffff;stroke-width:1.06695"
     id="path1034-4-6"
     cx="387.40158"
     cy="462.99213"
     r="9.4488192" />
  <circle
     style="fill:#ffffff;stroke-width:1.06695"
     id="path1034-6"
     cx="122.83465"
     cy="462.99213"
     r="9.4488192" />
  <circle
     style="fill:#ffffff;stroke-width:1.06695"
     id="path1034-4"
     cx="387.40158"
     cy="255.1181"
     r="9.4488192" />
  <circle
     style="fill:#ffffff;stroke-width:0.568071"
     id="path516-3-8-9-7-8-1-1-3"
     cx="101.10236"
     cy="724.72443"
     r="6.6141734" />
  <circle
     style="fill:#ffffff;stroke-width:0.568071"
     id="path516-3-8-9-7-8-1-1"
     cx="252.28346"
     cy="724.72443"
     r="6.6141734" />
  <circle
     style="fill:#ffffff;stroke-width:0.486918"
     id="path516-3-8-9-74-1-7-2"
     cx="595.27557"
     cy="553.70081"
     r="5.6692915" />
  <circle
     style="fill:#ffffff;stroke-width:0.486918"
     id="path516-3-8-9-74-1-7"
     cx="716.22046"
     cy="553.70081"
     r="5.6692915" />
  <circle
     style="fill:#ffffff;stroke-width:0.486918"
     id="path516-3-8-9-7-8"
     cx="716.22046"
     cy="746.45667"
     r="5.6692915" />
  <circle
     style="fill:#ffffff;stroke-width:0.486918"
     id="path516-3-8-9-74-1"
     cx="1033.7008"
     cy="553.70081"
     r="5.6692915" />
  <circle
     style="fill:#ffffff;stroke-width:0.486918"
     id="path516-3-8-9-74"
     cx="1154.6456"
     cy="553.70081"
     r="5.6692915" />
  <circle
     style="fill:#ffffff;stroke-width:0.486918"
     id="path516-3-8-9-7"
     cx="1033.7008"
     cy="746.45667"
     r="5.6692915" />
  <circle
     style="fill:#ffffff;stroke-width:0.486918"
     id="path516-3-8-9"
     cx="1154.6456"
     cy="746.45667"
     r="5.6692915" />
  <rect
     style="fill:#ffffff"
     id="rect763-3-0"
     width="37.795277"
     height="377.95276"
     x="631.18109"
     y="113.38583"
     ry="18.897638" />
  <rect
     style="fill:#ffffff"
     id="rect763-3"
     width="37.795277"
     height="377.95276"
     x="1077.1654"
     y="113.38583"
     ry="18.897638" />
  <circle
     style="fill:#ffffff;stroke-width:0.486918"
     id="path516-3-85-8"
     cx="735.1181"
     cy="746.45667"
     r="5.6692915" />
  <circle
     style="fill:#ffffff;stroke-width:0.486918"
     id="path516-3-85-4"
     cx="1014.8032"
     cy="746.45667"
     r="5.6692915" />
  <circle
     style="fill:#ffffff;stroke-width:0.486918"
     id="path516-3-85-3"
     cx="735.1181"
     cy="81.259842"
     r="5.6692915" />
  <circle
     style="fill:#ffffff;stroke-width:0.486918"
     id="path516-3-85"
     cx="1014.8032"
     cy="81.259842"
     r="5.6692915" />
  <circle
     style="fill:#ffffff;stroke-width:0.486918"
     id="path516-3-8"
     cx="1173.5433"
     cy="746.45667"
     r="5.6692915" />
  <circle
     style="fill:#ffffff;stroke-width:0.486918"
     id="path516-9"
     cx="1453.2284"
     cy="746.45667"
     r="5.6692915" />
  <circle
     style="fill:#ffffff;stroke-width:0.486918"
     id="path516-3"
     cx="1173.5433"
     cy="81.259842"
     r="5.6692915" />
  <circle
     style="fill:#ffffff;stroke-width:0.486918"
     id="path516"
     cx="1453.2284"
     cy="81.259842"
     r="5.6692915" />
  <rect
     style="fill:#ffffff"
     id="rect763"
     width="37.795277"
     height="377.95276"
     x="1485.3544"
     y="113.38583"
     ry="18.897638" />
  <circle
     style="fill:#ffffff;stroke-width:0.486918"
     id="path516-3-8-9-7-8-1"
     cx="595.27557"
     cy="746.45667"
     r="5.6692915" />
  <rect
     style="fill:#ffffff;stroke-width:0.821785"
     id="rect988"
     width="103.1811"
     height="72.944885"
     x="124.72441"
     y="687.87402"
     ry="13.880942" />
  <circle
     style="fill:#ffffff;stroke-width:1.06695"
     id="path1034"
     cx="122.83465"
     cy="255.1181"
     r="9.4488192" />
</svg>
