<?xml version="1.0" encoding="UTF-8" standalone="no"?>

<svg
   id="wrap"
   width="300mm"
   height="75mm"
   version="1.1"
   inkscape:version="1.2.2 (732a01da63, 2022-12-09)"
   sodipodi:docname="mini_panel.svg"
   xmlns:inkscape="http://www.inkscape.org/namespaces/inkscape"
   xmlns:sodipodi="http://sodipodi.sourceforge.net/DTD/sodipodi-0.dtd"
   xmlns="http://www.w3.org/2000/svg"
   xmlns:svg="http://www.w3.org/2000/svg">
  <defs
     id="defs382" />
  <sodipodi:namedview
     id="namedview380"
     pagecolor="#ffffff"
     bordercolor="#000000"
     borderopacity="0.25"
     inkscape:showpageshadow="2"
     inkscape:pageopacity="0.0"
     inkscape:pagecheckerboard="0"
     inkscape:deskcolor="#d1d1d1"
     showgrid="false"
     inkscape:zoom="1.3563218"
     inkscape:cx="112.43644"
     inkscape:cy="87.368644"
     inkscape:window-width="1845"
     inkscape:window-height="1212"
     inkscape:window-x="-6"
     inkscape:window-y="-6"
     inkscape:window-maximized="1"
     inkscape:current-layer="wrap"
     inkscape:document-units="mm" />
  <rect
     style="fill:orange;stroke-width:3.77953"
     width="290mm"
     height="65mm"
     x="5mm"
     y="5mm"
     rx="20"
     ry="20"
     id="rect326" />

  <!-- Terminal holes-->
  <g id="terminal"
     transform="matrix(3.7795276,0,0,3.7795276,-27.795276,-27.795276)">>
     <circle
       cx="190.5"
       cy="45"
       r="2"
       fill="#ffffff"
       id="circle328" />
     <circle
       cx="268"
       cy="45"
       r="2"
       fill="#ffffff"
       id="circle328" />
  </g>

  <!-- Corner screw holes-->
  <g
     id="cornerscrew"
     transform="matrix(3.7795276,0,0,3.7795276,-27.795276,-27.795276)">
    <circle
       cx="20"
       cy="20"
       r="3"
       fill="#ffffff"
       id="circle328" />
    <circle
       cx="295"
       cy="20"
       r="3"
       fill="#ffffff"
       id="circle330" />
    <circle
       cx="20"
       cy="70"
       r="3"
       fill="#ffffff"
       id="circle332" />
    <circle
       cx="295"
       cy="70"
       r="3"
       fill="#ffffff"
       id="circle334" />
  </g>

  <!-- Mounting Size: 26 x 21.5mm -->
  <g
     id="powerrocker"
     transform="matrix(3.7795276,0,0,3.7795276,-27.795276,-27.795276)">
    <rect
       width="21.5"
       height="29"
       x="35"
       y="35"
       fill="#ffffff"
       id="rect348" />
     <path transform="translate(41.5,22), scale(0.06)"
          d="M111.84 15.36H16.16
          c-1.24 0-2.24 1-2.24 2.24v17.99
          c0 1.24 1 2.24 2.24 2.24h34.65v80.73
          c0 1.24 1 2.24 2.24 2.24h21.9
          c1.24 0 2.24-1 2.24-2.24V37.83h34.65
          c1.24 0 2.24-1 2.24-2.24V17.6
          c0-1.24-1-2.24-2.24-2.24z" fill="white">
     </path>

    <rect
       width="21.5"
       height="29"
       x="70"
       y="35"
       fill="#ffffff"
       id="rect346" />
     <path transform="translate(76.5,22), scale(0.06)"
          d="M76.32 16.27H51.68
          c-1.29 0-2.33 1.05-2.33 2.33
          v99.96
          c0 1.29 1.04 2.33 2.33 2.33h24.64
          c1.29 0 2.33-1.04 2.33-2.33V18.6
          c0-1.28-1.04-2.33-2.33-2.33z" fill="white">
     </path>


    <rect
       width="29"
       height="21.5"
       x="106"
       y="35"
       fill="#ffffff"
       id="rect350" />
    <!-- make it a tad bigger -->
    <path transform="translate(115,22), scale(0.06)"
       d="M110.7 117.03L85.59 83.64
       c13.01-5.37 22.18-18.08 22.18-32.87
       c0-19.63-16.13-35.61-35.96-35.61H33.95
       c-.15 0-.28.06-.42.09h-6.46c-1.24 0-2.24 1-2.24 2.24
       v100.96c0 1.24 1 2.24 2.24 2.24h21.89
       c1.24 0 2.24-1 2.24-2.24V86.37h8.64l25.2 33.51
       c.45.59 1.15.94 1.89.94h21.89c.9 0 1.72-.51 2.11-1.31
       c.4-.8.31-1.76-.23-2.48z" fill="white">
       <desc>Reverse</desc>
    </path>

    <rect
       width="21.5"
       height="29"
       x="150"
       y="35"
       fill="#ffffff"
       id="rect352" />
     <path transform="translate(156.5,22), scale(0.06)"
          d="M64.01 15.06
          c-34.13 0-55.46 24.1-55.46 53.82
          c0 29.73 21.33 53.82 55.46 53.82
          c34.12 0 55.45-24.1 55.45-53.82
          c-.01-29.73-21.33-53.82-55.45-53.82z" fill="white">
          <desc>Outer</desc>
     </path>
</g>


</svg>
