<?xml version="1.0" encoding="UTF-8" standalone="no"?>
<svg
   id="back"
   width="426"
   height="220"
   version="1.1"
   xmlns="http://www.w3.org/2000/svg"
   xmlns:svg="http://www.w3.org/2000/svg">

<!--23mm -->
<polyline points="
	10,10
	10,20
	13,20
	13,40
	10,40
	10,60
	13,60
	13,80
	10,80
	10,100
	13,100
	13,120
	10,120
	10,140
	13,140
	13,160
	10,160
	10,180
	13,180
	13,200
	10,200

	10,213
	33,213
	33,216
	73,216
	73,213
	113, 213
	113, 216
	153, 216
	153, 213
	193, 213
	193, 216
	233, 216
	233, 213
	273, 213
	273, 216
	313, 216
	313, 213
	353, 213
	353, 216
	393, 216
	393, 213

	416, 213
	416, 200
	413, 200
	413, 180
	416, 180
	416, 160
	413, 160
	413, 140
	416, 140
	416, 120
	413, 120
	413, 100
	416, 100
	416, 80
	413, 80
	413, 60
	416, 60
	416, 40
	413, 40
	413, 20
	416, 20
	416, 13

	393, 13
	393, 10
	353, 10
	353, 13
	313, 13
	313, 10
	273, 10
	273, 13
	233, 13
	233, 10
	193, 10
	193, 13
	153, 13
	153, 10
	113, 10
	113, 13
	73, 13
	73, 10
	33, 10
	33, 13
	10, 13
"/>


<polyline points="
	300, 50
	330, 50
	330, 170
	300, 170
" fill="white" />

</svg>