<?xml version="1.0" encoding="UTF-8" standalone="no"?>
<svg
   id="floor"
   width="426"
   height="276"
   version="1.1"
   xmlns="http://www.w3.org/2000/svg"
   xmlns:svg="http://www.w3.org/2000/svg">

  <polyline points="
	10,10
	10,38
	13,38
	13,78
	10,78
	10,118
	13,118
	13,158
	10,158
	10,198
	13,198
	13,238
	10,238
	10,266

	33,266
	33,263
	73, 263
	73, 266
	113, 266
	113, 263
	153, 263
	153, 266
	193, 266
	193, 263
	233, 263
	233, 266
	273, 266
	273, 263

	313, 263
	313, 266
	353, 266
	353, 263
	393, 263
	393, 266
	416, 266
	416, 238
	413, 238
	413, 198
	416, 198
	416, 158
	413, 158
	413, 118
	416, 118
	416, 78
	413, 78
	413, 38
	416, 38
	416, 10
	
	393, 10
	393, 13
	353, 13
	353, 10   
	313, 10
	313, 13
	273, 13
	273, 10 
	233, 10
	233, 13
	193, 13
	193, 10
	153, 10
	153, 13
	113, 13
	113, 10
	73, 10
	73, 13
	33, 13
	33, 10
	10,10"

	/>
</svg>
