<?xml version="1.0" encoding="UTF-8" standalone="no"?>
<svg
   id="front"
   width="426"
   height="73"
   version="1.1"
   xmlns="http://www.w3.org/2000/svg"
   xmlns:svg="http://www.w3.org/2000/svg">



<polyline points="
	13,10
	13,25
	10,25
	10,45
	13,45
	13,60
	33,60
	33,63
	73,63
	73,60
	113, 60
	113, 63
	153, 63
	153, 60
	193, 60
	193, 63
	233, 63
	233, 60
	273, 60
	273, 63
	313, 63
	313, 60
	353, 60
	353, 63
	393, 63
	393, 60
	413, 60
	413, 45
	416, 45
	416, 25
	413, 25
	413, 10
	13, 10
"/>


</svg>