<?xml version="1.0" encoding="UTF-8" standalone="no"?>
<svg
   id="wrap"
   width="220"
   height="340"
   version="1.1"
   xmlns="http://www.w3.org/2000/svg"
   xmlns:svg="http://www.w3.org/2000/svg">



  <!-- Inkscape cannot convert -->
  <defs>

    <rect
      id="boardoutline"
      stroke="white"
      x="-27.5"

      width="55"
      height="44"
      stroke-dasharray="1 2"
     />
     <!-- Arduino Nano overhangs a bit -->

    <rect
       id="arduino"
       stroke="white"
       width="19"
       height="43"
       stroke-dasharray="1 2"
     />

    <rect
     id="packoutline"
     stroke="orange"
     width="92"
     height="51"
     stroke-dasharray="1 2"
     />

    <rect
     id="rotaryoutline"
     stroke="white"
     width="25"
     height="25"
     stroke-dasharray="1 2"
     />

    <rect
     id="terminaloutline"
     stroke="white"
     width="123.5"
     height="20"
     stroke-dasharray="1 2"
     />

  </defs>

  <desc>
     Now with quarter size breadboard
  </desc>

  <g
     id="outline"
     transform="translate(10,30)">
  <path d="
     M24,0

     h160

     a2,2 0 0 1 2,2
     v3
     a2,2 0 0 0 2,2
     a2,2 0 0 0 2,-2
     v-13
     a5,5 0 0 1 5,-5
     a5,5 0 0 1 5,5

     v305

     a5,5 0 0 1 -5,5
     a5,5 0 0 1 -5,-5
     v-13
     a2,2 0 0 0 -2,-2
     a2,2 0 0 0 -2,2
     v3
     a2,2 0 0 1 -2,2

     h-168 

     a2,2 0 0 1 -2,-2
     v-3
     a2,2 0 0 0 -2,-2
     a2,2 0 0 0 -2,2
     v13
     a5,5 0 0 1 -5,5
     a5,5 0 0 1 -5,-5

     v-305

     a5,5 0 0 1 5,-5
     a5,5 0 0 1 5,5
     v13
     a2,2 0 0 0 2,2
     a2,2 0 0 0 2,-2
     v-3
     a2,2 0 0 1 2,-2

     z" 
     fill="black" 
     />

    <circle
     cx="5"
     cy="-7"
     r="2.1"
     fill="lightgray"
    />

    <circle
     cx="195"
     cy="-7"
     r="2.1"
     fill="lightgray"
    />

    <line y1="3" x2="10" y2="3" stroke="orange">
      <desc>For left tab. 2 mm in for material thickness</desc>
    </line>
     
    <line x1="190" y1="3" x2="200" y2="3" stroke="orange">
      <desc>For left tab. 2 mm in for material thickness</desc>
    </line>

    <line  y1="60" x2="200" y2="60" stroke="orange">
      <desc>This is the most important. line Fold between back and top</desc>
    </line>

    <circle
      cx="5"
      cy="70"
      r="2.1"
      fill="lightgray"
    />
    <circle
      cx="195"
      cy="70"
      r="2.1"
      fill="lightgray"
    />

    <circle
      cx="5"
      cy="220"
      r="2.1"
      fill="lightgray"
    />
    <circle
      cx="195"
      cy="220"
      r="2.1"
      fill="lightgray"
    />

    <line y1="230" x2="200" y2="230" stroke="orange">
      <desc>Fold between top and front. A 57mm distance</desc>
    </line>

    <line y1="286" x2="10" y2="286" stroke="orange">
      <desc>For left tab. 2 mm in for material thickness</desc>
    </line>
     
    <line x1="190" y1="286" x2="200" y2="286" stroke="orange">
      <desc>For left tab. 2 mm in for material thickness</desc>
    </line>

    <circle
      cx="5"
      cy="296"
      r="2.1"
      fill="lightgray"
    />
    <circle
      cx="195"
      cy="296"
      r="2.1"
      fill="lightgray"
    />
  </g>

  <g 
   id="DCplug"
   transform="translate(190,50)">

    <circle
      fill="orange"
      r="4.1"
      />
  </g>



  <!-- Board screw holes-->
  <g
    id="boardscrew"
    transform="translate(85,170)">


    <use href="#boardoutline" 
     y="-2"

    />


    <use href="#arduino"
     x="-10"
     y="-3"
     />

    <circle
       r="1.5"
       fill="white"
    />

    <!-- Pin spacing 14 * 2.54 = 35.56 Then give it 1mm up down-->
    
    <rect
       x="-1.56"
       y="33.5"
       fill="white"
       width="3.1"
       height="4"
       rx="1.55"
       ry="1.55"
       />

  </g>
  <!-- Mounting Size: 26 x 21.5mm -->
  <g
    id="powerrocker"
    transform="translate(25,140)"
    >

    <rect
      x="-36.5" y="-29" transform="rotate(90)"
       width="21.5"
       height="29"
       fill="white"
    />

    <rect
       width="21.5"
       height="29"
       fill="white"
    />
    <rect
      y="40"
      width="21.5"
      height="29"
      fill="white"
    />

    <rect
       y="76"
       fill="gray"
       width="29"
       height="2"
       rx="1"
       ry="1"
       >
     </rect>

    <rect
      x="85" y="-29" transform="rotate(90)"
       width="21.5"
       height="29"
       fill="white"
     >
       <desc>This controls if remote is for North or South</desc>
     </rect>

    <path  transform="translate(32,92), scale(0.05)"
      d="M72.51 15.42
      H34.65
      c-.15 0-.28.06-.42.08
      h-6.47
      c-1.24 0-2.24 1-2.24 2.24
      v100.97
      c0 1.24 1 2.24 2.24 2.24
      h21.9
      c1.24 0 2.24-1 2.24-2.24
      V86.63
      h20.61
      c19.83 0 35.96-15.97 35.96-35.6
      c.01-19.63-16.13-35.61-35.96-35.61
      z
      " fill="#40C0E7">
</path>


  </g>
  <!-- https://learn.adafruit.com/adafruit-led-backpack/downloads -->
  <g
     id="bicolor"
     transform="translate(70,120)">
    <rect
       fill="pink"
       width="32"
       height="32"
        />
    <!-- up and down is supposed to be less than 37. I don't like adafruit specs -->
    <circle
       cx="2"
       cy="-2.3"
       r="1.1"
       fill="pink"
       id="circle355" />
    <circle
       cx="30"
       cy="-2.3"
       r="1.1"
       fill="pink"
    />
    <circle
       cx="30"
       cy="34.5"
       r="1.1"
       fill="pink"
    />
    <circle
       cx="2"
       cy="34.5"
       r="1.1"
       fill="pink"
    />
  </g>
  <!-- https://cdn-shop.adafruit.com/datasheets/pec11.pdf -->
  <g
     id="buttons"
     transform="translate(120,115)"
     >
    <circle
       r="6.1"
       fill="yellow"
       />
    <!-- This is a separator so that it is obvious which switch controls which section -->
    <rect
       x="-6"
       y="14"
       fill="gray"
       width="42"
       height="2"
       rx="1"
       ry="1"
       />

    <use href="#rotaryoutline"
      x="48"
      y="-12"
    />

    <circle
      cx="60"
      cy="0"
      r="3.5"
      fill="white"
      >
      <desc>Rotary Encoder</desc>
    </circle>



    <circle
       cy="30"
       r="6.1"
       fill="white"
       />
    <!-- another separator -->
    <rect
       x="-6"
       y="44"
       fill="gray"
       width="42"
       height="2"
       rx="1"
       ry="1"
       />
    <circle
       cx="30"
       cy="30"
       r="6.1"
       fill="white"
       />
    <circle
       cx="60"
       cy="30"
       r="6.1"
       fill="white"
       />
    <circle
       cy="60"
       r="6.1"
       fill="white"
       />
    <path transform="translate(57,39), scale(0.05)"
       d="M94.9 71.35c-8.08-7.63-21.82-13.99-30.91-18.2c-1.54-.71-2.93-1.35-4.11-1.92
       c-3.43-1.65-8.12-6.22-6.1-11.47c1.36-3.55 4.81-5.34 10.27-5.34c1.75 0 3.67.2 5.72.58
       c7.12 1.33 12.52 3.99 15.58 5.5c.38.19.82.21 1.22.07c.39-.15.72-.45.89-.84
       l7.01-15.81c.31-.69.07-1.51-.57-1.93c-4.94-3.28-17.27-8.15-30.97-8.15
       c-1.98 0-3.95.1-5.87.3c-10.92 1.12-21.86 4.03-27.92 17.64
       c-3.78 8.47-3.77 18.01.01 24.89c4.04 7.51 10.66 10.87 19.04 15.11
       l1.08.55c6.05 3.02 13.3 6.38 18.07 8.59c7.05 3.4 9.66 9.44 8.04 13.08
       c-2.61 5.87-8.38 7.16-18.36 4.33c-8.81-2.39-16.94-9.14-19.21-11.15
       c-.34-.3-.79-.44-1.25-.38c-.45.06-.85.32-1.1.69L24.6 104.14c-.41.63-.32 1.46.22 1.98
       c5.63 5.43 10.22 8.59 18.17 12.5c5.35 2.63 13.18 4.21 20.95 4.21
       c8.12 0 27.95-1.88 36.65-19.26c5.55-11.12 3.48-22.84-5.69-32.22z"
       fill="white">
       <desc>S</desc>
    </path>

    <circle
       cx="30"
       cy="60"
       r="6.1"
       fill="white"
       />
    <circle
       cy="120"
       r="6.1"
       fill="blue"
       />
    <path transform="translate(-3,129), scale(0.05)"
       d="M94.9 71.35c-8.08-7.63-21.82-13.99-30.91-18.2c-1.54-.71-2.93-1.35-4.11-1.92
       c-3.43-1.65-8.12-6.22-6.1-11.47c1.36-3.55 4.81-5.34 10.27-5.34c1.75 0 3.67.2 5.72.58
       c7.12 1.33 12.52 3.99 15.58 5.5c.38.19.82.21 1.22.07c.39-.15.72-.45.89-.84
       l7.01-15.81c.31-.69.07-1.51-.57-1.93c-4.94-3.28-17.27-8.15-30.97-8.15
       c-1.98 0-3.95.1-5.87.3c-10.92 1.12-21.86 4.03-27.92 17.64
       c-3.78 8.47-3.77 18.01.01 24.89c4.04 7.51 10.66 10.87 19.04 15.11
       l1.08.55c6.05 3.02 13.3 6.38 18.07 8.59c7.05 3.4 9.66 9.44 8.04 13.08
       c-2.61 5.87-8.38 7.16-18.36 4.33c-8.81-2.39-16.94-9.14-19.21-11.15
       c-.34-.3-.79-.44-1.25-.38c-.45.06-.85.32-1.1.69L24.6 104.14c-.41.63-.32 1.46.22 1.98
       c5.63 5.43 10.22 8.59 18.17 12.5c5.35 2.63 13.18 4.21 20.95 4.21
       c8.12 0 27.95-1.88 36.65-19.26c5.55-11.12 3.48-22.84-5.69-32.22z"
       fill="blue">
       <desc>S</desc>
    </path>


    <circle
       cx="30"
       cy="90"
       r="6.1"
       fill="green"
       />
    <circle
       cy="90"
       r="6.1"
       fill="green"
       />
    <path transform="translate(27,99), scale(0.05)"
       d="M94.9 71.35c-8.08-7.63-21.82-13.99-30.91-18.2c-1.54-.71-2.93-1.35-4.11-1.92
       c-3.43-1.65-8.12-6.22-6.1-11.47c1.36-3.55 4.81-5.34 10.27-5.34c1.75 0 3.67.2 5.72.58
       c7.12 1.33 12.52 3.99 15.58 5.5c.38.19.82.21 1.22.07c.39-.15.72-.45.89-.84
       l7.01-15.81c.31-.69.07-1.51-.57-1.93c-4.94-3.28-17.27-8.15-30.97-8.15
       c-1.98 0-3.95.1-5.87.3c-10.92 1.12-21.86 4.03-27.92 17.64
       c-3.78 8.47-3.77 18.01.01 24.89c4.04 7.51 10.66 10.87 19.04 15.11
       l1.08.55c6.05 3.02 13.3 6.38 18.07 8.59c7.05 3.4 9.66 9.44 8.04 13.08
       c-2.61 5.87-8.38 7.16-18.36 4.33c-8.81-2.39-16.94-9.14-19.21-11.15
       c-.34-.3-.79-.44-1.25-.38c-.45.06-.85.32-1.1.69L24.6 104.14c-.41.63-.32 1.46.22 1.98
       c5.63 5.43 10.22 8.59 18.17 12.5c5.35 2.63 13.18 4.21 20.95 4.21
       c8.12 0 27.95-1.88 36.65-19.26c5.55-11.12 3.48-22.84-5.69-32.22z"
       fill="green">
       <desc>S</desc>
    </path>

    <rect
       x="44"
       y="84"
       fill="gray"
       width="2"
       height="42"
       rx="1"
       ry="1"
       >
       <desc>Vertical divider</desc>
     </rect>
    <circle
       cx="60"
       cy="120"
       r="6.1"
       fill="red"
       />
    <circle
       cx="60"
       cy="90"
       r="6.1"
       fill="red"
       />

    <path 
      transform="translate(57,129), scale(0.05)"
      d="
         M109.48 16.34H84.84c-1.28 0-2.33 1.04-2.33 2.33v36.27H45.5V18.68c0-1.29-1.04-2.33-2.34-2.33H18.53a2.34 2.34 0 0 0-2.34 2.33v99.96c0 1.29 1.05 2.33 2.34 2.33h24.63a2.34 2.34 0 0 0 2.34-2.33V76.15h37.02v42.48c0 1.29 1.05 2.33 2.33 2.33h24.64c1.29 0 2.33-1.05 2.33-2.33V18.68a2.35 2.35 0 0 0-2.34-2.34z"
      fill="red">
      <desc>H</desc>
    </path>

    <circle
       cx="60"
       cy="175"
       r="6.1"
       fill="red"
       />
  </g>

  <path transform="translate(30,305), scale(0.05)"
    d="M100.08 16.44H75.44c-1.24 0-2.24 1-2.24 2.24v45.53c.31 10.84-.18 23.69-1.52 25.89c-.1.13-.2.28-.27.43c-1.6 3.33-6.9 6.78-12.99 6.78c-6.33 0-13.78-5.46-15.94-11.68a2.24 2.24 0 0 0-2.79-1.41l-20.47 6.41c-1.06.33-1.7 1.38-1.53 2.48c.01.07.03.14.04.2c2.32 17.58 18.94 29.38 41.46 29.38c22.53 0 39.16-11.81 41.48-29.4c.02-.1.04-.19.05-.29c1.56-15.02 1.58-28.71 1.58-28.85V18.68c.02-1.23-.98-2.24-2.22-2.24z" fill="#40C0E7">
  </path>
  <path transform="translate(37,305), scale(0.05)"
    d="M111.53 18.49c-.01-.01-.01-.03-.02-.04c-.02-.25-.1-.5-.2-.74c-.03-.06-.06-.11-.09-.17c-.04-.07-.07-.14-.11-.21c-.08-.12-.19-.23-.29-.33c-.03-.02-.04-.05-.07-.07c-.18-.17-.4-.29-.63-.4a1.22 1.22 0 0 1-.17-.07a2.56 2.56 0 0 0-.78-.14h-22.3c-.31 0-.59.07-.87.18c-.08.03-.14.07-.23.11c-.19.11-.37.23-.53.38c-.03.04-.09.06-.13.1c-.03.03-.04.07-.05.1c-.16.19-.28.4-.38.64c-.02.04-.05.08-.07.13c0 .01-.01.02-.01.03L64 85.16L43.39 17.99c0-.01-.01-.02-.01-.03c-.02-.05-.05-.09-.07-.13a2.38 2.38 0 0 0-.37-.64c-.03-.03-.04-.07-.06-.1c-.04-.04-.1-.06-.13-.1c-.16-.15-.33-.28-.52-.38c-.08-.04-.15-.08-.23-.11c-.28-.11-.56-.18-.87-.18h-22.3c-.27 0-.52.06-.78.14c-.05.02-.11.04-.17.07c-.24.11-.45.23-.64.4c-.03.03-.04.05-.06.07c-.11.11-.21.21-.3.33c-.05.07-.07.14-.11.21c-.03.06-.07.11-.09.17c-.1.24-.17.48-.21.74c0 .01-.01.03-.01.04l-8.45 99.96c-.06.66.17 1.31.61 1.8c.45.48 1.09.77 1.74.77h20.91c1.22 0 2.23-.92 2.36-2.14l4.19-42.6l16.15 43.2c.01.01.02.02.03.04c.07.19.17.38.29.54l.03.03c.02.04.07.07.09.1c.12.13.24.24.37.35l.18.12c.13.08.27.14.4.2a2.254 2.254 0 0 0 .83.17H71.8c.22 0 .44-.04.65-.1c.06-.02.12-.04.18-.07c.15-.05.28-.12.4-.2c.06-.04.12-.08.17-.12c.14-.1.25-.22.37-.35c.03-.04.07-.07.1-.1c0-.01.02-.02.03-.03c.12-.17.22-.35.3-.54c0-.01.01-.02.02-.04l16.15-43.2l4.2 42.61a2.366 2.366 0 0 0 2.35 2.14h20.9c.66 0 1.3-.28 1.74-.77c.45-.49.67-1.14.62-1.8l-8.45-99.97z" fill="#40C0E7">
  </path>
</svg>
