<?xml version="1.0" encoding="UTF-8" standalone="no"?>
<!-- height :10 + 20 + 50 + 254 + 50 + 200 + 20 + 10 = 664 -->

<!-- angles :        90   63    27   90    90 -->

<svg
   id="wrap"
   width="220"
   height="380"
   version="1.1"
   inkscape:version="1.2.2 (732a01da63, 2022-12-09)"
   sodipodi:docname="mini_panel.svg"
   xmlns:inkscape="http://www.inkscape.org/namespaces/inkscape"
   xmlns:sodipodi="http://sodipodi.sourceforge.net/DTD/sodipodi-0.dtd"
   xmlns="http://www.w3.org/2000/svg"
   xmlns:svg="http://www.w3.org/2000/svg">

  <sodipodi:namedview
     id="namedview380"
     pagecolor="#ffffff"
     bordercolor="#000000"
     borderopacity="0.25"
     inkscape:showpageshadow="2"
     inkscape:pageopacity="0.0"
     inkscape:pagecheckerboard="0"
     inkscape:deskcolor="#d1d1d1"
     showgrid="false"
     inkscape:zoom="1.3563218"
     inkscape:cx="112.43644"
     inkscape:cy="87.368644"
     inkscape:window-width="1845"
     inkscape:window-height="1212"
     inkscape:window-x="-6"
     inkscape:window-y="-6"
     inkscape:window-maximized="1"
     inkscape:current-layer="wrap"
     inkscape:document-units="mm" />

  <desc>
     We are expecting 5052 H21 Aluminum @ .080" (2.0 MM)
     Revised bends.
  </desc>

  <g
     id="outline"
     transform="translate(10,30)">
  <path d="
     M24,0

     h160

     a2,2 0 0 1 2,2
     v3
     a2,2 0 0 0 2,2
     a2,2 0 0 0 2,-2
     v-13
     a5,5 0 0 1 5,-5
     a5,5 0 0 1 5,5

     v345

     a5,5 0 0 1 -5,5
     a5,5 0 0 1 -5,-5
     v-13
     a2,2 0 0 0 -2,-2
     a2,2 0 0 0 -2,2
     v3
     a2,2 0 0 1 -2,2

     h-168 

     a2,2 0 0 1 -2,-2
     v-3
     a2,2 0 0 0 -2,-2
     a2,2 0 0 0 -2,2
     v13
     a5,5 0 0 1 -5,5
     a5,5 0 0 1 -5,-5

     v-345

     a5,5 0 0 1 5,-5
     a5,5 0 0 1 5,5
     v13
     a2,2 0 0 0 2,2
     a2,2 0 0 0 2,-2
     v-3
     a2,2 0 0 1 2,-2

     z" 
     fill="black" 
     />

    <circle
     cx="5"
     cy="-7"
     r="2.1"
     fill="lightgray"
    />

    <circle
     cx="195"
     cy="-7"
     r="2.1"
     fill="lightgray"
    />

    <line y1="3" x2="10" y2="3" stroke="orange">
      <desc>For left tab. 2 mm in for material thickness</desc>
    </line>
     
    <line x1="190" y1="3" x2="200" y2="3" stroke="orange">
      <desc>For left tab. 2 mm in for material thickness</desc>
    </line>

    <line  y1="60" x2="200" y2="60" stroke="orange">
      <desc>This is the most important. line Fold between back and top</desc>
    </line>

    <circle
      cx="5"
      cy="70"
      r="2.1"
      fill="lightgray"
    />
    <circle
      cx="195"
      cy="70"
      r="2.1"
      fill="lightgray"
    />

    <circle
      cx="5"
      cy="260"
      r="2.1"
      fill="lightgray"
    />
    <circle
      cx="195"
      cy="260"
      r="2.1"
      fill="lightgray"
    />

    <line y1="270" x2="200" y2="270" stroke="orange">
      <desc>Fold between top and front. A 57mm distance</desc>
    </line>

    <line y1="326" x2="10" y2="326" stroke="orange">
      <desc>For left tab. 2 mm in for material thickness</desc>
    </line>
     
    <line x1="190" y1="326" x2="200" y2="326" stroke="orange">
      <desc>For left tab. 2 mm in for material thickness</desc>
    </line>

    <circle
      cx="5"
      cy="336"
      r="2.1"
      fill="lightgray"
    />
    <circle
      cx="195"
      cy="336"
      r="2.1"
      fill="lightgray"
    />
  </g>



  <!-- Board screw holes-->
  <g
     id="boardscrew"
     transform="translate(55,185)">
    <circle
       cx="0"
       cy="0"
       r="1.5"
       fill="white"
       id="circle337" />
    <circle
       cx="144"
       cy="0"
       r="1.5"
       fill="#ffffff"
       id="circle339" />
    <circle
       cx="0"
       cy="94"
       r="1.5"
       fill="white"
       id="circle341" />
    <circle
       cx="144"
       cy="94"
       r="1.5"
       fill="white"
       id="circle343" />
  </g>
  <!-- Mounting Size: 26 x 21.5mm -->
  <g
    id="powerrocker"
    transform="translate(25,200)"
    >

    <rect
      x="-50" y="-30" transform="rotate(90)"
       width="21.5"
       height="30"
       fill="white"
    />


    <rect
       width="21.5"
       height="30"
       fill="white"
    />
    <rect
      y="50"
       width="21.5"
       height="30"
       fill="white"
    />

  </g>
  <!-- https://learn.adafruit.com/adafruit-led-backpack/downloads -->
  <g
     id="bicolor"
     transform="translate(65,200)">
    <rect
       fill="pink"
       width="32"
       height="32"
        />
    <!-- up and down is supposed to be less than 37. I don't like adafruit specs -->
    <circle
       cx="2"
       cy="-2.3"
       r="1.1"
       fill="pink"
       id="circle355" />
    <circle
       cx="30"
       cy="-2.3"
       r="1.1"
       fill="pink"
    />
    <circle
       cx="30"
       cy="34.5"
       r="1.1"
       fill="pink"
    />
    <circle
       cx="2"
       cy="34.5"
       r="1.1"
       fill="pink"
    />
  </g>
  <!-- https://cdn-shop.adafruit.com/datasheets/pec11.pdf -->
  <g
     id="buttons"
     transform="translate(125,150)"
     >
    <circle
       r="6.1"
       fill="yellow"
       id="circle362" />
    <!-- This is a separator so that it is obvious which switch controls which section -->
    <rect
       x="-6"
       y="14"
       fill="gray"
       width="42"
       height="2"
       rx="1"
       ry="1"
       />
    <circle
       cx="60"
       cy="0"
       r="3.5"
       fill="white"
       id="circle360" />
    <circle
       cy="30"
       r="6.1"
       fill="white"
       id="circle364" />
    <!-- another separator -->
    <rect
       x="-6"
       y="44"
       fill="gray"
       width="42"
       height="2"
       rx="1"
       ry="1"
       />
    <circle
       cx="30"
       cy="30"
       r="6.1"
       fill="white"
       id="circle366" />
    <circle
       cy="60"
       r="6.1"
       fill="white"
       id="circle368" />
    <circle
       cx="30"
       cy="60"
       r="6.1"
       fill="white"
       id="circle370" />
    <circle
       cy="120"
       r="6.1"
       fill="#0000ff"
       id="circle372" />
    <circle
       cx="30"
       cy="90"
       r="6.1"
       fill="green"
       id="circle374" />
    <circle
       cx="60"
       cy="120"
       r="6.1"
       fill="red"
       id="circle376" />
  </g>

  <!-- https://www.amazon.com/dp/B084DJTNBR?ref=ppx_yo2ov_dt_b_product_details&th=1 -->
  <g id="terminal" transform="translate(35,40)">
    <circle
       cy="4"
       r="2.1"
       fill="gray"
       id="circle376" />
    <!-- I think it is 8, but want a little room -->
    <rect
      x="5"
      fill="gray"
      width="123.5"
      height="8.2"
      rx="4.1"
      ry="4.1"
      />
    <!-- Or maybe 133-->
    <circle
       cx="133.5"
       cy="4"
       r="2.1"
       fill="gray"
       id="circle376" />

    <rect
      x="78.5"
      y="15"
      fill="gray"
      width="50"
      height="25"
      rx="5"
      ry="5"
      />
  </g>
</svg>
