<?xml version="1.0" encoding="UTF-8" standalone="no"?>
<svg
   id="north"
   width="426mm"
   height="270mm"
   version="1.1"
   sodipodi:docname="NorthModel400x300 with panel.svg"
   inkscape:version="1.2.2 (732a01da63, 2022-12-09)"
   xmlns:inkscape="http://www.inkscape.org/namespaces/inkscape"
   xmlns:sodipodi="http://sodipodi.sourceforge.net/DTD/sodipodi-0.dtd"
   xmlns="http://www.w3.org/2000/svg"
   xmlns:svg="http://www.w3.org/2000/svg">
  <defs
     id="defs9287" />
  <sodipodi:namedview
     id="namedview9285"
     pagecolor="#ffffff"
     bordercolor="#000000"
     borderopacity="0.25"
     inkscape:showpageshadow="2"
     inkscape:pageopacity="0.0"
     inkscape:pagecheckerboard="0"
     inkscape:deskcolor="#d1d1d1"
     showgrid="false"
     inkscape:zoom="3.1431925"
     inkscape:cx="203.13742"
     inkscape:cy="194.86557"
     inkscape:window-width="1845"
     inkscape:window-height="1212"
     inkscape:window-x="-6"
     inkscape:window-y="-6"
     inkscape:window-maximized="1"
     inkscape:current-layer="north"
     inkscape:document-units="mm" />
  <style>

	</style>
  <polyline
     points="
     13,10
     13,28
     10,28
     10,58
     13,58
     13,98
     10,98
     10,128
     13,128
     13,158
     10,158
     10,188
     13,188
     13,218
     10,218
     10,248
     13,248
     13,260
     413,260
     413,248
     416,248
     416,218
     413,218
     413,188
     416,188
     416,158
     413,158
     413,128
     416,128
     416,98
     413,98
     413,68
     416,68
     416,38
     413,38
     413,10
     13,10
     "
     id="polyline8941" />


  <!-- MCP23017 modules-->
  <!-- top left -->
  <g>
  <circle
     cx="120"
     cy="22"
     r="1.6"
     fill="white"
      />

  <circle
     cx="120"
     cy="60"
     r="1.6"
     fill="white"
      />

  <circle
     cx="133"
     cy="22"
     r="1.6"
     fill="white"
      /> 

  <circle
     cx="133"
     cy="60"
     r="1.6"
     fill="white"
      />
  </g>

  <!-- center -->
  <g>
  <circle
     cx="180"
     cy="180"
     r="1.6"
     fill="white"
      />

  <circle
     cx="193"
     cy="180"
     r="1.6"
     fill="white"
      />

  <circle
     cx="180"
     cy="218"
     r="1.6"
     fill="white"
      />

   <circle
     cx="193"
     cy="218"
     r="1.6"
     fill="white"
      />
  </g>

  <!-- top right -->
  <g>
  <circle
     cx="320"
     cy="22"
     r="1.6"
     fill="white"
      />

  <circle
     cx="320"
     cy="60"
     r="1.6"
     fill="white"
      />

  <circle
     cx="333"
     cy="22"
     r="1.6"
     fill="white"
      /> 

  <circle
     cx="333"
     cy="60"
     r="1.6"
     fill="white"
      />
  </g>

  <!-- Cutover switches -->
  <!-- Track 1 -->
  <g>
  <circle
     cx="340"
     cy="200"
     r="2.3"
     fill="#ffa500"
     id="circle8943" />
  <circle
     cx="340"
     cy="236"
     r="2.3"
     fill="#ffa500"
     id="circle8945" />
  <circle
     cx="358"
     cy="218"
     r="4.3000002"
     fill="#ffa500"
     id="circle8947" />
  <circle
     cx="376"
     cy="236"
     r="2.3"
     fill="#ffa500"
     id="circle8949" />
  <circle
     cx="376"
     cy="200"
     r="2.3"
     fill="#ffa500"
     id="circle8951" />
  </g>
  <!-- Track 2 -->
  <g>
  <circle
     cx="240"
     cy="200"
     r="2.3"
     fill="#ffa500"
     id="circle8953" />
  <circle
     cx="240"
     cy="236"
     r="2.3"
     fill="#ffa500"
     id="circle8955" />
  <circle
     cx="258"
     cy="218"
     r="4.3000002"
     fill="#ffa500"
     id="circle8957" />
  <circle
     cx="276"
     cy="236"
     r="2.3"
     fill="#ffa500"
     id="circle8959" />
  <circle
     cx="276"
     cy="200"
     r="2.3"
     fill="#ffa500"
     id="circle8961" />
  </g>
  <polyline
     points="   80,40   80,60   100,60   100,40   80,40"
     fill="#ffffff"
     id="polyline8963" />

  <g>
  <circle
     cx="210"
     cy="30"
     r="3"
     fill="blue"
     id="circle8965" />
  <circle
     cx="210"
     cy="50"
     r="3"
     fill="#ffffff"
     id="circle8967" />
  <circle
     cx="210"
     cy="70"
     r="3"
     fill="#ffffff"
     id="circle8969" />
  <circle
     cx="210"
     cy="90"
     r="3"
     fill="#ffffff"
     id="circle8971" />
   </g>
  <!-- Words -->

  <!-- Station sidings -->
  <!-- Track 3 -->
  

  <!-- Track 4 -->


  <!-- end station -->
  <!-- tramway -->

  <!-- reversing loop -->
  <!-- Track holes -->
  <!-- Inner loop -->
  <g
     id="gleis1_1"
     class="unpowered">
    <circle
       cx="50"
       cy="20"
       fill="orange"
       r="3"
       />
    <circle
       cx="50"
       cy="40"
       fill="yellow"
       r="3.5"
      />
    <circle
       cx="50"
       cy="60"
       fill="orange"
       r="3" />
    <circle
       cx="50"
       cy="80"
       fill="orange"
       r="3" />
    <circle
       cx="50"
       cy="100"
       fill="lime"
       r="3.5" />
    <circle
       cx="70"
       cy="120"
       fill="orange"
       r="3" />
  </g>
  <!-- curve -->
  <g
     id="gleis1_2"
     class="unpowered">
    <circle
       cx="100"
       cy="130"
       r="3"
       fill="#ff0000"
       id="circle9040" />
    <circle
       cx="90"
       cy="120"
      fill="orange"
       r="3" />
    <circle
       cx="110"
       cy="120"
       fill="lime"
       r="3.5"
       />
    <circle
       cx="130"
       cy="120"
       fill="yellow"
       r="3.5" />
    <circle
       cx="150"
       cy="120"
       fill="lime"
       r="3.5" />
    <circle
       cx="170"
       cy="120"
       fill="orange"
       r="3" />
    <circle
       cx="160"
       cy="130"
       r="3"
       fill="#ff0000"
       id="circle9052" />
  </g>
  <!-- switch-->
  <!-- switch-->
  <g
     id="gleis1_3"
     class="unpowered">
    <circle
       cx="190"
       cy="120"
       fill="orange"
       r="3" />
    <circle
       cx="210"
       cy="120"
       fill="lime"
       r="3.5" />
    <circle
       cx="230"
       cy="120"
       fill="orange"
       r="3" />
    <circle
       cx="250"
       cy="120"
       fill="yellow"
       r="3.5" />
    <circle
       cx="270"
       cy="120"
       fill="orange"
       r="3" />
  </g>
  <g
     id="gleis1_4"
     class="unpowered">
    <circle
       cx="300"
       cy="110"
       r="3"
       fill="#ff0000"
       id="circle9066" />
    <circle
       cx="290"
       cy="120"
       fill="orange"
       r="3" />
    <circle
       cx="310"
       cy="120"
       fill="lime"
       r="3.5" />
    <circle
       cx="330"
       cy="120"
       fill="orange"
       r="3" />
    <circle
       cx="320"
       cy="130"
       r="3"
       fill="#ff0000"
       id="circle9074" />
  </g>
  <!-- curve -->
  <g
     id="gleis1_5"
     class="unpowered">
    <circle
       cx="350"
       cy="120"
       fill="orange"
       r="3" />
    <circle
       cx="370"
       cy="100"
       fill="lime"
       r="3.5" />
    <circle
       cx="370"
       cy="80"
       fill="orange"
       r="3" />
    <circle
       cx="370"
       cy="60"
       fill="orange"
       r="3" />
    <circle
       cx="370"
       cy="40"
       fill="yellow"
       r="3.5" />
    <circle
       cx="370"
       cy="20"
       fill="orange"
       r="3" />
  </g>
  <!-- Outer loop -->
  <g
     id="gleis2_1"
     class="unpowered">
    <circle
       cx="30"
       cy="20"
       fill="yellow"
       r="3.5" />
    <circle
       cx="30"
       cy="40"
       fill="orange"
       r="3" />
    <circle
       cx="30"
       cy="60"
       fill="orange"
       r="3" />
    <circle
       cx="30"
       cy="80"
       fill="orange"
       r="3" />
    <circle
       cx="30"
       cy="100"
       fill="orange"
       r="3" />
    <circle
       cx="30"
       cy="120"
       fill="orange"
       r="3" />
    <circle
       cx="50"
       cy="140"
       fill="lime"
       r="3.5" />
    <circle
       cx="70"
       cy="140"
       fill="orange"
       r="3" />
    <circle
       cx="80"
       cy="150"
       r="3"
       fill="#ff0000"
       id="circle9106" />
  </g>
  <!-- end curve -->
  <g
     id="gleis2_2"
     class="unpowered">
    <circle
       cx="90"
       cy="140"
       fill="orange"
       r="3" />
  </g>
  <g
     id="gleis12"
     class="unpowered">
    <circle
       cx="90"
       cy="130"
       fill="orange"
       r="3" />
  </g>
  <g
     id="gleis2_3"
     class="unpowered">
    <circle
       cx="100"
       cy="130"
       r="3"
       fill="#ff0000"
       id="circle9115" />
    <circle
       cx="110"
       cy="140"
       fill="orange"
       r="3" />
    <circle
       cx="130"
       cy="140"
       fill="lime"
       r="3.5" />
    <circle
       cx="150"
       cy="140"
       fill="orange"
       r="3" />
    <circle
       cx="170"
       cy="140"
       fill="orange"
       r="3" />
    <circle
       cx="190"
       cy="140"
       fill="orange"
       r="3" />
    <circle
       cx="210"
       cy="140"
       fill="yellow"
       r="3.5" />
    <circle
       cx="230"
       cy="140"
       fill="orange"
       r="3" />
    <circle
       cx="250"
       cy="140"
       fill="orange"
       r="3" />
    <circle
       cx="270"
       cy="140"
       fill="orange"
       r="3" />
    <circle
       cx="290"
       cy="140"
       fill="lime"
       r="3.5" />
    <circle
       cx="310"
       cy="140"
       fill="orange"
       r="3" />
    <circle
       cx="320"
       cy="150"
       r="3"
       fill="#ff0000"
       id="circle9139" />
  </g>
  <g
     id="gleis2_4"
     class="unpowered">
    <circle
       cx="330"
       cy="140"
       fill="orange"
       r="3" />
  </g>
  <g
     id="gleis21"
     class="unpowered">
    <circle
       cx="330"
       cy="130"
       fill="orange"
       r="3" />
    <!-- crossover -->
  </g>
  <!-- start curve -->
  <g
     id="gleis2_5"
     class="unpowered">
    <circle
       cx="340"
       cy="130"
       r="3"
       fill="#ff0000"
       id="circle9148" />
    <circle
       cx="350"
       cy="140"
       fill="orange"
       r="3" />
    <circle
       cx="370"
       cy="140"
       fill="lime"
       r="3.5" />
    <circle
       cx="390"
       cy="120"
       fill="orange"
       r="3" />
    <circle
       cx="390"
       cy="100"
       fill="orange"
       r="3" />
    <circle
       cx="390"
       cy="80"
       fill="orange"
       r="3" />
    <circle
       cx="390"
       cy="60"
       fill="orange"
       r="3" />
    <circle
       cx="390"
       cy="40"
       fill="orange"
       r="3" />
    <circle
       cx="390"
       cy="20"
       fill="yellow"
       r="3.5" />
  </g>
  <!-- end outer loop -->
  <!-- Track 3 start station -->
  <g
     id="gleis3_1"
     class="unpowered">
    <circle
       cx="100"
       cy="150"
       r="3"
       fill="#ff0000"
       id="circle9167" />
    <circle
       cx="90"
       cy="150"
       fill="orange"
       r="3" />
    <circle
       cx="110"
       cy="160"
       fill="lime"
       r="3.5" />
    <circle
       cx="130"
       cy="160"
       fill="lime"
       r="3.5" />
    <circle
       cx="150"
       cy="160"
       fill="orange"
       r="3" />
    <circle
       cx="140"
       cy="170"
       r="3"
       fill="#ff0000"
       id="circle9177" />
  </g>
  <g
     id="gleis3_2"
     class="unpowered">
    <circle
       cx="170"
       cy="160"
              fill="orange"
       r="3" />
    <circle
       cx="190"
       cy="160"
              fill="orange"
       r="3" />
    <circle
       cx="210"
       cy="160"
              fill="orange"
       r="3" />
    <circle
       cx="230"
       cy="160"
       fill="yellow"
       r="3.5" />
    <circle
       cx="250"
       cy="160"
              fill="orange"
       r="3" />
    <circle
       cx="270"
       cy="160"
       fill="orange"
       r="3" />
    <circle
       cx="290"
       cy="160"
       fill="orange"
       r="3" />
    <circle
       cx="310"
       cy="160"
       fill="lime"
       r="3.5" />
    <circle
       cx="330"
       cy="150"
       fill="orange"
       r="3" />
    <!-- station -->
    <circle
       cx="320"
       cy="170"
       r="3"
       fill="#ff0000"
       id="circle9198" />
  </g>
  <!-- Reset to stub tracks -->
  <g
     id="gleis4_1"
     class="unpowered">
    <circle
       cx="50"
       cy="180"
       fill="yellow"
       r="3.5" />
    <circle
       cx="70"
       cy="180"
       fill="orange"
       r="3" />
    <circle
       cx="90"
       cy="180"
       fill="orange"
       r="3" />
    <circle
       cx="110"
       cy="180"
       fill="lime"
       r="3.5" />
    <circle
       cx="130"
       cy="180"
              fill="orange"
       r="3" />
    <circle
       cx="120"
       cy="190"
       r="3"
       fill="#ff0000"
       id="circle9211" />
  </g>
  <g
     id="gleis5_1"
     class="unpowered">
    <circle
       cx="50"
       cy="200"
       fill="yellow"
       r="3.5" />
    <circle
       cx="110"
       cy="200"
       fill="lime"
       r="3.5" />
    <circle
       cx="70"
       cy="200"
       fill="orange"
       r="3" />
    <circle
       cx="90"
       cy="200"
       fill="orange"
       r="3" />
    <circle
       cx="130"
       cy="190"
       fill="orange"
       r="3" />
    <!-- switch -->
    <circle
       cx="120"
       cy="210"
       r="3"
       fill="#ff0000"
       id="circle9224" />
  </g>
  <!-- end station -->
  <g
     id="gleis5_2"
     class="unpowered">
    <circle
       cx="150"
       cy="170"
       fill="orange"
       r="3" />
    <!-- switch -->
  </g>
  <!-- start tram -->
  <g
     id="gleis6_1"
     class="unpowered">
    <circle
       cx="90"
       cy="80"
       fill="yellow"
       r="3.5" />
    <circle
       cx="110"
       cy="80"
              fill="orange"
       r="3" />
    <circle
       cx="130"
       cy="80"
              fill="orange"
       r="3" />
  </g>
  <g
     id="gleis6_2"
     class="unpowered">
    <circle
       cx="160"
       cy="90"
       r="3"
       fill="#ff0000"
       id="circle9237" />
    <circle
       cx="150"
       cy="90"
              fill="orange"
       r="3" />
    <!-- switch -->
    <circle
       cx="170"
       cy="110"
              fill="orange"
       r="3" />
    <!-- switch -->
    <circle
       cx="160"
       cy="110"
       r="3"
       fill="#ff0000"
       id="circle9243" />
  </g>
  <g
     id="gleis6_3"
     class="unpowered">
    <circle
       cx="150"
       cy="80"
              fill="orange"
       r="3" />
    <circle
       cx="160"
       cy="70"
       r="3"
       fill="#ff0000"
       id="circle9248" />
    <circle
       cx="170"
       cy="80"
       fill="lime"
       r="3.5" />
    <circle
       cx="190"
       cy="60"
              fill="orange"
       r="3" />
    <circle
       cx="190"
       cy="40"
              fill="orange"
       r="3" />
    <circle
       cx="190"
       cy="20"
              fill="orange"
       r="3" />
  </g>
  <!-- end tram -->
  <!-- start reversing loop-->
  <g
     id="gleis7_1"
     class="unpowered">
    <circle
       cx="290"
       cy="20"
       fill="yellow"
       r="3.5" />
    <circle
       cx="290"
       cy="40"
       fill="orange"
       r="3" />
    <circle
       cx="290"
       cy="60"
       fill="orange"
       r="3" />
    <circle
       cx="290"
       cy="80"
       fill="lime"
       r="3.5" />
    <circle
       cx="290"
       cy="100"
       fill="orange"
       r="3" />
    <circle
       cx="280"
       cy="90"
       r="3"
       fill="#ff0000"
       id="circle9269" />
  </g>

</svg>
