<?xml version="1.0" encoding="UTF-8" standalone="no"?>
<svg
   id="north"
   width="426mm"
   height="270mm"
   version="1.1"
   sodipodi:docname="NorthModel400x300 with panel.svg"
   inkscape:version="1.2.2 (732a01da63, 2022-12-09)"
   xmlns:inkscape="http://www.inkscape.org/namespaces/inkscape"
   xmlns:sodipodi="http://sodipodi.sourceforge.net/DTD/sodipodi-0.dtd"
   xmlns="http://www.w3.org/2000/svg"
   xmlns:svg="http://www.w3.org/2000/svg">
  <defs
     id="defs9287" />
  <sodipodi:namedview
     id="namedview9285"
     pagecolor="#ffffff"
     bordercolor="#000000"
     borderopacity="0.25"
     inkscape:showpageshadow="2"
     inkscape:pageopacity="0.0"
     inkscape:pagecheckerboard="0"
     inkscape:deskcolor="#d1d1d1"
     showgrid="false"
     inkscape:zoom="3.1431925"
     inkscape:cx="203.13742"
     inkscape:cy="194.86557"
     inkscape:window-width="1845"
     inkscape:window-height="1212"
     inkscape:window-x="-6"
     inkscape:window-y="-6"
     inkscape:window-maximized="1"
     inkscape:current-layer="north"
     inkscape:document-units="mm" />
  <style>

	</style>
  <polyline
     points="
     13,10
     13,28
     10,28
     10,58
     13,58
     13,98
     10,98
     10,128
     13,128
     13,158
     10,158
     10,188
     13,188
     13,218
     10,218
     10,248
     13,248
     13,260
     413,260
     413,248
     416,248
     416,218
     413,218
     413,188
     416,188
     416,158
     413,158
     413,128
     416,128
     416,198
     413,198
     413,68
     416,68
     416,38
     413,38
     413,10
     10,10
     "
     id="polyline8941" />


  <!-- MCP23017 modules-->
  <!-- top left -->
  <circle
     cx="120"
     cy="22"
     r="1.6"
     fill="white"
      />

  <circle
     cx="120"
     cy="60"
     r="1.6"
     fill="white"
      />

  <circle
     cx="133"
     cy="22"
     r="1.6"
     fill="white"
      /> 

  <circle
     cx="133"
     cy="60"
     r="1.6"
     fill="white"
      /> 

  <!-- center -->
  <circle
     cx="180"
     cy="180"
     r="1.6"
     fill="white"
      />

  <circle
     cx="193"
     cy="180"
     r="1.6"
     fill="white"
      />

  <circle
     cx="180"
     cy="218"
     r="1.6"
     fill="white"
      />

   <circle
     cx="193"
     cy="218"
     r="1.6"
     fill="white"
      />

  <!-- top right -->
  <circle
     cx="320"
     cy="22"
     r="1.6"
     fill="white"
      />

  <circle
     cx="320"
     cy="60"
     r="1.6"
     fill="white"
      />

  <circle
     cx="333"
     cy="22"
     r="1.6"
     fill="white"
      /> 

  <circle
     cx="333"
     cy="60"
     r="1.6"
     fill="white"
      />  

  <!-- Cutover switches -->
  <!-- Track 1 -->
  <circle
     cx="340"
     cy="200"
     r="2.3"
     fill="#ffa500"
     id="circle8943" />
  <circle
     cx="340"
     cy="236"
     r="2.3"
     fill="#ffa500"
     id="circle8945" />
  <circle
     cx="358"
     cy="218"
     r="4.3000002"
     fill="#ffa500"
     id="circle8947" />
  <circle
     cx="376"
     cy="236"
     r="2.3"
     fill="#ffa500"
     id="circle8949" />
  <circle
     cx="376"
     cy="200"
     r="2.3"
     fill="#ffa500"
     id="circle8951" />
  <!-- Track 2 -->
  <circle
     cx="240"
     cy="200"
     r="2.3"
     fill="#ffa500"
     id="circle8953" />
  <circle
     cx="240"
     cy="236"
     r="2.3"
     fill="#ffa500"
     id="circle8955" />
  <circle
     cx="258"
     cy="218"
     r="4.3000002"
     fill="#ffa500"
     id="circle8957" />
  <circle
     cx="276"
     cy="236"
     r="2.3"
     fill="#ffa500"
     id="circle8959" />
  <circle
     cx="276"
     cy="200"
     r="2.3"
     fill="#ffa500"
     id="circle8961" />
  <polyline
     points="   80,40   80,60   100,60   100,40   80,40"
     fill="#ffffff"
     id="polyline8963" />


  <circle
     cx="210"
     cy="30"
     r="3"
     fill="blue"
     id="circle8965" />
  <circle
     cx="210"
     cy="50"
     r="3"
     fill="#ffffff"
     id="circle8967" />
  <circle
     cx="210"
     cy="70"
     r="3"
     fill="#ffffff"
     id="circle8969" />
  <circle
     cx="210"
     cy="90"
     r="3"
     fill="#ffffff"
     id="circle8971" />
  <!-- Words -->

  <!-- Station sidings -->
  <!-- Track 3 -->
  <line
     x1="99"
     y1="160"
     x2="323"
     y2="160"
     stroke="#ffffff"
     stroke-width="5"
     id="line8973" />
  <line
     x1="80"
     y1="140"
     x2="101"
     y2="161"
     stroke="#ffffff"
     stroke-width="5"
     id="line8975" />
  <line
     x1="339"
     y1="140"
     x2="321"
     y2="161"
     stroke="#ffffff"
     stroke-width="5"
     id="line8977" />
  <!-- Track 4 -->
  <line
     x1="30"
     y1="180"
     x2="140"
     y2="180"
     stroke="#ffffff"
     stroke-width="5"
     id="line8979" />
  <line
     x1="30"
     y1="200"
     x2="123"
     y2="200"
     stroke="#ffffff"
     stroke-width="5"
     id="line8981" />
  <line
     x1="121"
     y1="201"
     x2="160"
     y2="160"
     stroke="#ffffff"
     stroke-width="5"
     id="line8983" />
  <!-- bumpers -->
  <line
     x1="30"
     y1="175"
     x2="30"
     y2="185"
     stroke="#ffffff"
     stroke-width="3"
     id="line8985" />
  <line
     x1="30"
     y1="195"
     x2="30"
     y2="205"
     stroke="#ffffff"
     stroke-width="3"
     id="line8987" />
  <!-- end station -->
  <!-- tramway -->
  <line
     x1="70"
     y1="80"
     x2="170"
     y2="80"
     stroke="#ffffff"
     stroke-width="5"
     id="line8989" />
  <path
     d="M 190,60 A 20,20 0 0 1 170,80"
     fill="none"
     stroke="#ffffff"
     stroke-width="5"
     id="path8991" />
  <line
     x1="190"
     y1="11"
     x2="190"
     y2="60"
     stroke="#ffffff"
     stroke-width="5"
     id="line8993" />
  <line
     x1="70"
     y1="70"
     x2="70"
     y2="90"
     stroke="#ffffff"
     stroke-width="3"
     id="line8995" />
  <line
     x1="140"
     y1="80"
     x2="180"
     y2="120"
     stroke="#ffffff"
     stroke-width="5"
     id="line8997" />
  <!-- reversing loop -->
  <path
     d="m 290,95 a 25,25 0 0 1 -25,25"
     fill="none"
     stroke="#ffffff"
     stroke-width="5"
     id="path8999" />
  <line
     x1="290"
     y1="11"
     x2="290"
     y2="95"
     stroke="#ffffff"
     stroke-width="5"
     id="line9001" />
  <!-- Track 1/ inner -->
  <line
     x1="50"
     y1="11"
     x2="50"
     y2="100"
     stroke="#ffffff"
     stroke-width="10"
     id="line9003" />
  <path
     d="M 75,120 A 25,25 0 0 1 50,95"
     fill="none"
     stroke="#ffffff"
     stroke-width="10"
     id="path9005" />
  <line
     x1="74"
     y1="120"
     x2="349"
     y2="120"
     stroke="#ffffff"
     stroke-width="10"
     id="line9007" />
  <path
     d="m 370,95 a 25,25 0 0 1 -25,25"
     fill="none"
     stroke="#ffffff"
     stroke-width="10"
     id="path9009" />
  <line
     x1="370"
     y1="11"
     x2="370"
     y2="100"
     stroke="#ffffff"
     stroke-width="10"
     id="line9011" />
  <!-- Track 2/outer main line -->
  <line
     x1="30"
     y1="11"
     x2="30"
     y2="120"
     stroke="#ffffff"
     stroke-width="10"
     id="line9013" />
  <path
     d="M 55,140 A 25,25 0 0 1 30,115"
     fill="none"
     stroke="#ffffff"
     stroke-width="10"
     id="path9015" />
  <line
     x1="55"
     y1="140"
     x2="365"
     y2="140"
     stroke="#ffffff"
     stroke-width="10"
     id="line9017" />
  <path
     d="m 390,115 a 25,25 0 0 1 -25,25"
     fill="none"
     stroke="#ffffff"
     stroke-width="10"
     id="path9019" />
  <line
     x1="390"
     y1="11"
     x2="390"
     y2="115"
     stroke="#ffffff"
     stroke-width="10"
     id="line9021" />
  <!-- Inner to outer cross overs -->
  <line
     x1="80"
     y1="120"
     x2="100"
     y2="140"
     stroke="#ffffff"
     stroke-width="5"
     id="line9023" />
  <line
     x1="340"
     y1="120"
     x2="320"
     y2="140"
     stroke="#ffffff"
     stroke-width="5"
     id="line9025" />
  <!-- Track holes -->
  <!-- Inner loop -->
  <g
     id="gleis1_1"
     class="unpowered">
    <circle
       cx="50"
       cy="20"
       fill="orange"
       r="3.5"
       />
    <circle
       cx="50"
       cy="40"
       fill="yellow"
       r="3.5"
      />
    <circle
       cx="50"
       cy="60"
          fill="orange"
       r="3.5" />
    <circle
       cx="50"
       cy="80"
              fill="orange"
       r="3.5" />
    <circle
       cx="50"
       cy="100"
       fill="lime"
       r="3" />
    <circle
       cx="70"
       cy="120"
              fill="orange"
       r="3.5" />
  </g>
  <!-- curve -->
  <g
     id="gleis1_2"
     class="unpowered">
    <circle
       cx="100"
       cy="130"
       r="3"
       fill="#ff0000"
       id="circle9040" />
    <circle
       cx="90"
       cy="120"
              fill="orange"
       r="3.5" />
    <circle
       cx="110"
       cy="120"
       fill="lime"
       r="3"
       />
    <circle
       cx="130"
       cy="120"
       fill="yellow"
       r="3.5" />
    <circle
       cx="150"
       cy="120"
       fill="lime"
       r="3" />
    <circle
       cx="170"
       cy="120"
              fill="orange"
       r="3.5" />
    <circle
       cx="160"
       cy="130"
       r="3"
       fill="#ff0000"
       id="circle9052" />
  </g>
  <!-- switch-->
  <!-- switch-->
  <g
     id="gleis1_3"
     class="unpowered">
    <circle
       cx="190"
       cy="120"
              fill="orange"
       r="3.5" />
    <circle
       cx="210"
       cy="120"
       fill="lime"
       r="3" />
    <circle
       cx="230"
       cy="120"
              fill="orange"
       r="3.5" />
    <circle
       cx="250"
       cy="120"
       fill="yellow"
       r="3.5" />
    <circle
       cx="270"
       cy="120"
              fill="orange"
       r="3.5" />
  </g>
  <g
     id="gleis1_4"
     class="unpowered">
    <circle
       cx="300"
       cy="110"
       r="3"
       fill="#ff0000"
       id="circle9066" />
    <circle
       cx="290"
       cy="120"
              fill="orange"
       r="3.5" />
    <circle
       cx="310"
       cy="120"
       fill="lime"
       r="3" />
    <circle
       cx="330"
       cy="120"
              fill="orange"
       r="3.5" />
    <circle
       cx="320"
       cy="130"
       r="3"
       fill="#ff0000"
       id="circle9074" />
  </g>
  <!-- curve -->
  <g
     id="gleis1_5"
     class="unpowered">
    <circle
       cx="350"
       cy="120"
              fill="orange"
       r="3.5" />
    <circle
       cx="370"
       cy="100"
       fill="lime"
       r="3" />
    <circle
       cx="370"
       cy="80"
              fill="orange"
       r="3.5" />
    <circle
       cx="370"
       cy="60"
              fill="orange"
       r="3.5" />
    <circle
       cx="370"
       cy="40"
       fill="yellow"
       r="3.5" />
    <circle
       cx="370"
       cy="20"
              fill="orange"
       r="3.5" />
  </g>
  <!-- Outer loop -->
  <g
     id="gleis2_1"
     class="unpowered">
    <circle
       cx="30"
       cy="20"
       fill="yellow"
       r="3.5" />
    <circle
       cx="30"
       cy="40"
              fill="orange"
       r="3.5" />
    <circle
       cx="30"
       cy="60"
              fill="orange"
       r="3.5" />
    <circle
       cx="30"
       cy="80"
              fill="orange"
       r="3.5" />
    <circle
       cx="30"
       cy="100"
              fill="orange"
       r="3.5" />
    <circle
       cx="30"
       cy="120"
              fill="orange"
       r="3.5" />
    <circle
       cx="50"
       cy="140"
       fill="lime"
       r="3" />
    <circle
       cx="70"
       cy="140"
              fill="orange"
       r="3.5" />
    <circle
       cx="80"
       cy="150"
       r="3"
       fill="#ff0000"
       id="circle9106" />
  </g>
  <!-- end curve -->
  <g
     id="gleis2_2"
     class="unpowered">
    <circle
       cx="90"
       cy="140"
              fill="orange"
       r="3.5" />
  </g>
  <g
     id="gleis12"
     class="unpowered">
    <circle
       cx="90"
       cy="130"
              fill="orange"
       r="3.5" />
  </g>
  <g
     id="gleis2_3"
     class="unpowered">
    <circle
       cx="100"
       cy="130"
       r="3"
       fill="#ff0000"
       id="circle9115" />
    <circle
       cx="110"
       cy="140"
              fill="orange"
       r="3.5" />
    <circle
       cx="130"
       cy="140"
       fill="lime"
       r="3" />
    <circle
       cx="150"
       cy="140"
              fill="orange"
       r="3.5" />
    <circle
       cx="170"
       cy="140"
              fill="orange"
       r="3.5" />
    <circle
       cx="190"
       cy="140"
              fill="orange"
       r="3.5" />
    <circle
       cx="210"
       cy="140"
       fill="yellow"
       r="3.5" />
    <circle
       cx="230"
       cy="140"
              fill="orange"
       r="3.5" />
    <circle
       cx="250"
       cy="140"
              fill="orange"
       r="3.5" />
    <circle
       cx="270"
       cy="140"
              fill="orange"
       r="3.5" />
    <circle
       cx="290"
       cy="140"
       fill="lime"
       r="3" />
    <circle
       cx="310"
       cy="140"
              fill="orange"
       r="3.5" />
    <circle
       cx="320"
       cy="150"
       r="3"
       fill="#ff0000"
       id="circle9139" />
  </g>
  <g
     id="gleis2_4"
     class="unpowered">
    <circle
       cx="330"
       cy="140"
              fill="orange"
       r="3.5" />
  </g>
  <g
     id="gleis21"
     class="unpowered">
    <circle
       cx="330"
       cy="130"
              fill="orange"
       r="3.5" />
    <!-- crossover -->
  </g>
  <!-- start curve -->
  <g
     id="gleis2_5"
     class="unpowered">
    <circle
       cx="340"
       cy="130"
       r="3"
       fill="#ff0000"
       id="circle9148" />
    <circle
       cx="350"
       cy="140"
              fill="orange"
       r="3.5" />
    <circle
       cx="370"
       cy="140"
       fill="lime"
       r="3" />
    <circle
       cx="390"
       cy="120"
              fill="orange"
       r="3.5" />
    <circle
       cx="390"
       cy="100"
              fill="orange"
       r="3.5" />
    <circle
       cx="390"
       cy="80"
              fill="orange"
       r="3.5" />
    <circle
       cx="390"
       cy="60"
              fill="orange"
       r="3.5" />
    <circle
       cx="390"
       cy="40"
              fill="orange"
       r="3.5" />
    <circle
       cx="390"
       cy="20"
       fill="yellow"
       r="3.5" />
  </g>
  <!-- end outer loop -->
  <!-- Track 3 start station -->
  <g
     id="gleis3_1"
     class="unpowered">
    <circle
       cx="100"
       cy="150"
       r="3"
       fill="#ff0000"
       id="circle9167" />
    <circle
       cx="90"
       cy="150"
              fill="orange"
       r="3.5" />
    <circle
       cx="110"
       cy="160"
       fill="lime"
       r="3" />
    <circle
       cx="130"
       cy="160"
       fill="lime"
       r="3" />
    <circle
       cx="150"
       cy="160"
              fill="orange"
       r="3.5" />
    <circle
       cx="140"
       cy="170"
       r="3"
       fill="#ff0000"
       id="circle9177" />
  </g>
  <g
     id="gleis3_2"
     class="unpowered">
    <circle
       cx="170"
       cy="160"
              fill="orange"
       r="3.5" />
    <circle
       cx="190"
       cy="160"
              fill="orange"
       r="3.5" />
    <circle
       cx="210"
       cy="160"
              fill="orange"
       r="3.5" />
    <circle
       cx="230"
       cy="160"
       fill="yellow"
       r="3.5" />
    <circle
       cx="250"
       cy="160"
              fill="orange"
       r="3.5" />
    <circle
       cx="270"
       cy="160"
              fill="orange"
       r="3.5" />
    <circle
       cx="290"
       cy="160"
              fill="orange"
       r="3.5" />
    <circle
       cx="310"
       cy="160"
       fill="lime"
       r="3" />
    <circle
       cx="330"
       cy="150"
              fill="orange"
       r="3.5" />
    <!-- station -->
    <circle
       cx="320"
       cy="170"
       r="3"
       fill="#ff0000"
       id="circle9198" />
  </g>
  <!-- Reset to stub tracks -->
  <g
     id="gleis4_1"
     class="unpowered">
    <circle
       cx="50"
       cy="180"
       fill="yellow"
       r="3.5" />
    <circle
       cx="70"
       cy="180"
              fill="orange"
       r="3.5" />
    <circle
       cx="90"
       cy="180"
              fill="orange"
       r="3.5" />
    <circle
       cx="110"
       cy="180"
       fill="lime"
       r="3" />
    <circle
       cx="130"
       cy="180"
              fill="orange"
       r="3.5" />
    <circle
       cx="120"
       cy="190"
       r="3"
       fill="#ff0000"
       id="circle9211" />
  </g>
  <g
     id="gleis5_1"
     class="unpowered">
    <circle
       cx="50"
       cy="200"
       fill="yellow"
       r="3.5" />
    <circle
       cx="110"
       cy="200"
       fill="lime"
       r="3" />
    <circle
       cx="70"
       cy="200"
              fill="orange"
       r="3.5" />
    <circle
       cx="90"
       cy="200"
              fill="orange"
       r="3.5" />
    <circle
       cx="130"
       cy="190"
              fill="orange"
       r="3.5" />
    <!-- switch -->
    <circle
       cx="120"
       cy="210"
       r="3"
       fill="#ff0000"
       id="circle9224" />
  </g>
  <!-- end station -->
  <g
     id="gleis5_2"
     class="unpowered">
    <circle
       cx="150"
       cy="170"
              fill="orange"
       r="3.5" />
    <!-- switch -->
  </g>
  <!-- start tram -->
  <g
     id="gleis6_1"
     class="unpowered">
    <circle
       cx="90"
       cy="80"
       fill="yellow"
       r="3.5" />
    <circle
       cx="110"
       cy="80"
              fill="orange"
       r="3.5" />
    <circle
       cx="130"
       cy="80"
              fill="orange"
       r="3.5" />
  </g>
  <g
     id="gleis6_2"
     class="unpowered">
    <circle
       cx="160"
       cy="90"
       r="3"
       fill="#ff0000"
       id="circle9237" />
    <circle
       cx="150"
       cy="90"
              fill="orange"
       r="3.5" />
    <!-- switch -->
    <circle
       cx="170"
       cy="110"
              fill="orange"
       r="3.5" />
    <!-- switch -->
    <circle
       cx="160"
       cy="110"
       r="3"
       fill="#ff0000"
       id="circle9243" />
  </g>
  <g
     id="gleis6_3"
     class="unpowered">
    <circle
       cx="150"
       cy="80"
              fill="orange"
       r="3.5" />
    <circle
       cx="160"
       cy="70"
       r="3"
       fill="#ff0000"
       id="circle9248" />
    <circle
       cx="170"
       cy="80"
       fill="lime"
       r="3" />
    <circle
       cx="190"
       cy="60"
              fill="orange"
       r="3.5" />
    <circle
       cx="190"
       cy="40"
              fill="orange"
       r="3.5" />
    <circle
       cx="190"
       cy="20"
              fill="orange"
       r="3.5" />
  </g>
  <!-- end tram -->
  <!-- start reversing loop-->
  <g
     id="gleis7_1"
     class="unpowered">
    <circle
       cx="290"
       cy="20"
       fill="yellow"
       r="3.5" />
    <circle
       cx="290"
       cy="40"
              fill="orange"
       r="3.5" />
    <circle
       cx="290"
       cy="60"
              fill="orange"
       r="3.5" />
    <circle
       cx="290"
       cy="80"
       fill="lime"
       r="3" />
    <circle
       cx="290"
       cy="100"
              fill="orange"
       r="3.5" />
    <circle
       cx="280"
       cy="90"
       r="3"
       fill="#ff0000"
       id="circle9269" />
  </g>
  <!-- Non track holes -->
  <!-- 12 x 12 proto type-->
  <!--
	<polygon points="0,12 12,12 
		12,7 15,7 15,5 12,5 
		12,0 4,0 0,4" />
	<circle cx="6" cy="6" r="3.5" fill="red" />
	-->
  <!-- Tram and loop -->
  <!--
	<g transform='translate(132 290) rotate(180)'>
		<polygon points="0,12 12,12 
			12,7 15,7 15,5 12,5 
			12,0 4,0 0,4" />
		<circle cx="6" cy="6" r="3.5" fill="red" />
	</g>

	<g transform='translate(317 97) rotate(270)'>
		<polygon points="0,12 12,12 
			12,7 15,7 15,5 12,5 
			12,0 4,0 0,4" />
		<circle cx="6" cy="6" r="3.5" fill="red" />
	</g>
	
	
	<g transform='translate(120 130)'>
		<polygon points="0,12 12,12 
			12,7 15,7 15,5 12,5 
			12,0 4,0 0,4" />
		<circle cx="6" cy="6" r="3.5" fill="red" />
	</g>

	<g transform='translate(71 170) rotate(180)'>
		<polygon points="0,12 12,12 
			12,7 15,7 15,5 12,5 
			12,0 4,0 0,4" />
		<circle cx="6" cy="6" r="3.5" fill="red" />
	</g>

	<g transform='translate(191 170) rotate(180)'>
		<polygon points="0,12 12,12 
			12,7 15,7 15,5 12,5 
			12,0 4,0 0,4" />
		<circle cx="6" cy="6" r="3.5" fill="red" />
	</g>

	<g transform='translate(330 130)'>
		<polygon points="0,12 12,12 
			12,7 15,7 15,5 12,5 
			12,0 4,0 0,4" />
		<circle cx="6" cy="6" r="3.5" fill="red" />
	</g>

	<g transform='translate(460 170) rotate(180)'>
		<polygon points="0,12 12,12 
			12,7 15,7 15,5 12,5 
			12,0 4,0 0,4" />
		<circle cx="6" cy="6" r="3.5" fill="red" />
	</g>

	<g transform='translate(510 158)'>
		<polygon points="0,12 12,12 
			12,7 15,7 15,5 12,5 
			12,0 4,0 0,4" />
		<circle cx="6" cy="6" r="3.5" fill="red" />
	</g>



	<g transform='translate(120 160)'>
		<polygon points="0,12 12,12 
			12,7 15,7 15,5 12,5 
			12,0 4,0 0,4" />
		<circle cx="6" cy="6" r="3.5" fill="red" />
	</g>

	<g transform='translate(71 200) rotate(180)'>
		<polygon points="0,12 12,12 
			12,7 15,7 15,5 12,5 
			12,0 4,0 0,4" />
		<circle cx="6" cy="6" r="3.5" fill="red" />
	</g>

	<g transform='translate(461 200) rotate(180)'>
		<polygon points="0,12 12,12 
			12,7 15,7 15,5 12,5 
			12,0 4,0 0,4" />
		<circle cx="6" cy="6" r="3.5" fill="red" />
	</g>

	<g transform='translate(510 188)'>
		<polygon points="0,12 12,12 
			12,7 15,7 15,5 12,5 
			12,0 4,0 0,4" />
		<circle cx="6" cy="6" r="3.5" fill="red" />
	</g>



	<g transform='translate(210 97)'>
		<polygon points="0,12 12,12 
			12,7 15,7 15,5 12,5 
			12,0 4,0 0,4" />
		<circle cx="6" cy="6" r="3.5" fill="red" />
	</g>
	<g transform='translate(132 260) rotate(180)'>
		<polygon points="0,12 12,12 
			12,7 15,7 15,5 12,5 
			12,0 4,0 0,4" />
		<circle cx="6" cy="6" r="3.5" fill="red" />
	</g>

	<g transform='translate(162 230) rotate(180)'>
		<polygon points="0,12 12,12 
			12,7 15,7 15,5 12,5 
			12,0 4,0 0,4" />
		<circle cx="6" cy="6" r="3.5" fill="red" />
	</g>


	<g transform='translate(120 190)'>
		<polygon points="0,12 12,12 
			12,7 15,7 15,5 12,5 
			12,0 4,0 0,4" />
		<circle cx="6" cy="6" r="3.5" fill="red" />
	</g>

	<g transform='translate(462 230) rotate(180)'>
		<polygon points="0,12 12,12 
			12,7 15,7 15,5 12,5 
			12,0 4,0 0,4" />
		<circle cx="6" cy="6" r="3.5" fill="red" />
	</g>
	-->
</svg>
