<svg id="north" width="400" height="300">
	<style>

	g.powered circle.route {
		fill: #fb0 !important
	}
	
	g.unpowered circle.route {
		fill: #555;
		r : 3.5px;
	}

	/* As in power pack*/
	circle.pack {
		fill: yellow;
		r : 5px;
	}

	/* manual override push buttons to move switch */
	circle.manual {
		r : 3.5px;
		fill : lime
	}

	.small {
		font: 6px sans-serif;
	}
	.heavy {
		font: bold 12px sans-serif;
	}

	circle.twtade {
		fill:black
	}
	</style>

	<!-- Words -->
	<text x="230" y="140" class="heavy">Gleis 1</text>
	<text x="230" y="170" class="heavy">Gleis 2</text>
	<text x="230" y="200" class="heavy">Gleis 3</text>
	<text x="42" y="230" class="heavy">Gleis 4</text>
	<text x="42" y="260" class="heavy">Gleis 5</text>
	<text x="80" y="105" class="heavy">Gleis 6</text>

	<!-- mini panel -->
	
	<circle cx="60" cy="30" r="3.5" fill="red" />
	<text x="65" y="33" class="small">Arduino Reset</text>
	<circle cx="60" cy="50" r="3.5" fill="blue" />
	<text x="65" y="53" class="small">Test Panel</text>
	<circle cx="60" cy="70" r="3.5" fill="blue" />
	<text x="65" y="73" class="small">Alternate</text>
	
	<circle cx="120" cy="30" r="3.5" fill="blue" />
	<text x="125" y="33" class="small">Day</text>
	<circle cx="120" cy="50" r="3.5" fill="blue" />
	<text x="125" y="53" class="small">Evening</text>
	<circle cx="120" cy="70" r="3.5" fill="blue" />
	<text x="125" y="73" class="small">Holiday</text>
	

	<!-- Station sidings -->
	<line x1="89" y1="210" x2="313" y2="210" 
		stroke="skyblue" stroke-width="5" />

	<line x1="70" y1="180" x2="91" y2="211" 
		stroke="skyblue" stroke-width="5" />

	<line x1="329" y1="180" x2="311" y2="211" 
		stroke="skyblue" stroke-width="5" />

	<!-- Track 4 -->
	<line x1="20" y1="240" x2="130" y2="240" 
		stroke="skyblue" stroke-width="5" />

	<line x1="20" y1="270" x2="113" y2="270"
		stroke="skyblue" stroke-width="5" />


	<line x1="111" y1="271" x2="150" y2="210" 
		stroke="skyblue" stroke-width="5" />

	<!-- bumpers -->
	<line x1="20" y1="230" x2="20" y2="250" 
		stroke="skyblue" stroke-width="3" />	

	<line x1="20" y1="260" x2="20" y2="280" 
		stroke="skyblue" stroke-width="3" />	

	<!-- end station -->

	<!-- tramway -->
	<line x1="60" y1="90" x2="160" y2="90" 
		stroke="violet" stroke-width="5" />

	<path d="M180,70 a20,20 0 0,1 -20,20" 
		fill="none" stroke="violet" stroke-width="5" />	

	<line x1="180" y1="0" x2="180" y2="70" 
		stroke="violet" stroke-width="5" />

	<line x1="60" y1="85" x2="60" y2="95" 
		stroke="violet" stroke-width="3" />

	<line x1="130" y1="90" x2="170" y2="150" 
		stroke="violet" stroke-width="5" />

	<!-- reversing loop -->
	<path d="M280,125 a25,25 0 0,1 -25,25" 
		fill="none" stroke="blue" stroke-width="5" />



	<line x1="280" y1="0" x2="280" y2="125" 
		stroke="blue" stroke-width="5" />

	<!-- Track 1/ inner -->
	<line x1="40" y1="0" x2="40" y2="125"
		stroke="black" stroke-width="10" />

	<path d="M65,150 a25,25 0 0,1 -25,-25" 
		fill="none" stroke="black" stroke-width="10" />	

	<line x1="64" y1="150" x2="339" y2="150" 
		style="stroke:black;stroke-width:10" />

	<path d="M360,125 a25,25 0 0,1 -25,25" 
		fill="none" stroke="black" stroke-width="10" />	

	<line x1="360" y1="0" x2="360" y2="125" 
		stroke="black" stroke-width="10" />

	<!-- Track 2/outer main line -->
	<line x1="20" y1="0" x2="20" y2="155" 
		stroke="black" stroke-width="10" />

	<path d="M45,180 a25,25 0 0,1 -25,-25" 
		fill="none" stroke="black" stroke-width="10" />	

	<line x1="45" y1="180" x2="355" y2="180" 
		stroke="black" stroke-width="10" />

	<path d="M380,155 a25,25 0 0,1 -25,25" 
		fill="none" stroke="black" stroke-width="10" />	

	<line x1="380" y1="0" x2="380" y2="155" 
		stroke="black" stroke-width="10" />

	<!-- Inner to outer cross overs -->
	<line x1="70" y1="150" x2="90" y2="180" 
		style="stroke:black;stroke-width:5;" />


	<line x1="330" y1="150" x2="310" y2="180" 
		style="stroke:black;stroke-width:5;" />

	<!-- Track holes -->
	<!-- Inner loop -->

	<g id="gleis1_1" class="unpowered">
		<circle cx="40" cy="30" class="pack" />

		<circle cx="40" cy="60" class="route" />
		<circle cx="40" cy="90" class="route" />
		<circle cx="40" cy="120" class="manual" />
		<circle cx="60" cy="150" class="route" />
	</g>
	<!-- curve -->
	
	<g id="gleis1_2" class="unpowered">
		<circle cx="80" cy="150" class="route" />
		<circle cx="100" cy="150" class="manual" />
		<circle cx="120" cy="150" class="pack" />
		<circle cx="140" cy="150" class="manual" />
		<circle cx="160" cy="150" class="route" />
	</g>
	<!-- switch-->
	
	<!-- switch-->
	<g id="gleis1_3" class="unpowered">
		<circle cx="180" cy="150" class="route" />
		<circle cx="200" cy="150" class="manual" />
		<circle cx="220" cy="150" class="route" />
		<circle cx="240" cy="150" class="pack" />
		<circle cx="260" cy="150" class="route" />
	</g>

	<g id="gleis1_4" class="unpowered">

		<circle cx="280" cy="150" class="route" />
		<circle cx="300" cy="150" class="manual" />
		<circle cx="320" cy="150" class="route" />
	</g>



	<!-- curve -->
	<g id="gleis1_5" class="unpowered">
		<circle cx="360" cy="120" class="manual" />
		<circle cx="340" cy="150" class="route" />

		<circle cx="360" cy="90" class="route" />
		<circle cx="360" cy="60" class="route" />
		<circle cx="360" cy="30" class="pack" />
	</g>
	

	<!-- Outer loop -->
	
	<g id="gleis2_1" class="unpowered">
		<circle cx="20" cy="30" class="pack" />

		<circle cx="20" cy="60" class="route" />
		<circle cx="20" cy="90" class="route" />
		<circle cx="20" cy="120" class="route" />
		<circle cx="20" cy="150" class="route" />
		<circle cx="40" cy="180" class="manual" />

		<circle cx="60" cy="180" class="route" />
	</g>
	<!-- end curve -->

	<g id="gleis2_2" class="unpowered">
		<circle cx="80" cy="180" class="route" />
	</g>
	<g id="gleis12" class="unpowered">
		<circle cx="80" cy="165" class="route" />
	</g>


	

	<g id="gleis2_3" class="unpowered">
		<circle cx="100" cy="180" class="route" />
		<circle cx="120" cy="180" class="manual" />
		<circle cx="140" cy="180" class="route" />
		<circle cx="160" cy="180" class="route" />
		<circle cx="180" cy="180" class="route" />

		<circle cx="200" cy="180" class="pack" />
	
		<circle cx="220" cy="180" class="route" />
		<circle cx="240" cy="180" class="route" />
		<circle cx="260" cy="180" class="route" />
		<circle cx="280" cy="180" class="manual" />
		<circle cx="300" cy="180" class="route" />
	</g>
	
	<g id="gleis2_4" class="unpowered">
		<circle cx="320" cy="180" class="route" />
	</g>
	<g id="gleis21" class="unpowered">
		<circle cx="320" cy="165" class="route" /><!-- crossover -->
	</g>


	<!-- start curve -->
	<g id="gleis2_5" class="unpowered">
		<circle cx="340" cy="180" class="route" />
		<circle cx="360" cy="180" class="manual" />
		<circle cx="380" cy="150" class="route" />
		<circle cx="380" cy="120" class="route" />
		<circle cx="380" cy="90" class="route" />
		<circle cx="380" cy="60" class="route" />
		<circle cx="380" cy="30" class="pack" />
	</g>

	
	<!-- end outer loop -->

	<!-- Track 3 start station -->
	<g id="gleis3_1" class="unpowered">
		<circle cx="80" cy="195" class="route" />
		<circle cx="100" cy="210" class="manual" />
		<circle cx="120" cy="210" class="manual" />
		<circle cx="140" cy="210" class="route" />
	</g>

	<g id="gleis3_2" class="unpowered">
		<circle cx="160" cy="210" class="route" />
		<circle cx="180" cy="210" class="route" />
		<circle cx="200" cy="210" class="route" />

		<circle cx="220" cy="210" class="pack" />

		<circle cx="240" cy="210" class="route" />
		<circle cx="260" cy="210" class="route" />
		<circle cx="280" cy="210" class="route" />
		<circle cx="300" cy="210" class="manual" />
		<circle cx="320" cy="195" class="route" /><!-- station -->
	</g>
	


	<!-- Reset to stub tracks -->
	

	<g id="gleis4_1" class="unpowered">
		<circle cx="40" cy="240" class="pack" />
		<circle cx="60" cy="240" class="route" />
		<circle cx="80" cy="240" class="route" />
		<circle cx="100" cy="240" class="manual" />
		<circle cx="120" cy="240" class="route" />
	</g>

	


	<g id="gleis5_1" class="unpowered">
		<circle cx="40" cy="270" class="pack" />
		<circle cx="100" cy="270" class="manual" />
		<circle cx="60" cy="270" class="route" />
		<circle cx="80" cy="270" class="route" />
		<circle cx="120" cy="255" class="route" /><!-- switch -->
	</g>
	<!-- end station -->

	<g id="gleis5_2" class="unpowered">
		<circle cx="140" cy="225" class="route" /><!-- switch -->
	</g>


	<!-- start tram -->
	<g id="gleis6_1" class="unpowered">
		<circle cx="80" cy="90" class="pack" />

		<circle cx="100" cy="90" class="route" />
		<circle cx="120" cy="90" class="route" />
	</g>
	<g id="gleis6_2" class="unpowered">
		<circle cx="140" cy="105" class="route" /><!-- switch -->
		<circle cx="160" cy="135" class="route" /><!-- switch -->
	</g>
	<g id="gleis6_3" class="unpowered">
		<circle cx="140" cy="90" class="route" />
		<circle cx="160" cy="90" class="manual" />
		<circle cx="180" cy="60" class="route" />
		<circle cx="180" cy="30" class="pack" />
	</g>	
	
	
	
	<!-- end tram -->

	<!-- start reversing loop-->
	
	<g id="gleis7_1" class="unpowered">
		<circle cx="280" cy="30" r="3.5" class="pack" />
		<circle cx="280" cy="60" class="route" />
		<circle cx="280" cy="90" class="manual" />
		<circle cx="280" cy="120" class="route" />
		
	</g>
	
	<!-- Non track holes -->
	<circle cx="485" cy="30" r="11" class="twtade" />
	<text x="470" y="50" class="small">Gleis 1, 6</text>
	<circle cx="485" cy="70" r="11" class="twtade" />
	<text x="470" y="90" class="small">Gleis 2</text>
	<circle cx="485" cy="110" r="11" class="twtade" />
	<text x="470" y="130" class="small">Gleis 3, 4, 5</text>


	<!-- 12 x 12 proto type-->
	<!--
	<polygon points="0,12 12,12 
		12,7 15,7 15,5 12,5 
		12,0 4,0 0,4" />
	<circle cx="6" cy="6" r="3.5" fill="red" />
	-->

	<!-- Tram and loop -->
	<!--
	<g transform='translate(132 290) rotate(180)'>
		<polygon points="0,12 12,12 
			12,7 15,7 15,5 12,5 
			12,0 4,0 0,4" />
		<circle cx="6" cy="6" r="3.5" fill="red" />
	</g>

	<g transform='translate(317 97) rotate(270)'>
		<polygon points="0,12 12,12 
			12,7 15,7 15,5 12,5 
			12,0 4,0 0,4" />
		<circle cx="6" cy="6" r="3.5" fill="red" />
	</g>
	
	
	<g transform='translate(120 130)'>
		<polygon points="0,12 12,12 
			12,7 15,7 15,5 12,5 
			12,0 4,0 0,4" />
		<circle cx="6" cy="6" r="3.5" fill="red" />
	</g>

	<g transform='translate(71 170) rotate(180)'>
		<polygon points="0,12 12,12 
			12,7 15,7 15,5 12,5 
			12,0 4,0 0,4" />
		<circle cx="6" cy="6" r="3.5" fill="red" />
	</g>

	<g transform='translate(191 170) rotate(180)'>
		<polygon points="0,12 12,12 
			12,7 15,7 15,5 12,5 
			12,0 4,0 0,4" />
		<circle cx="6" cy="6" r="3.5" fill="red" />
	</g>

	<g transform='translate(330 130)'>
		<polygon points="0,12 12,12 
			12,7 15,7 15,5 12,5 
			12,0 4,0 0,4" />
		<circle cx="6" cy="6" r="3.5" fill="red" />
	</g>

	<g transform='translate(460 170) rotate(180)'>
		<polygon points="0,12 12,12 
			12,7 15,7 15,5 12,5 
			12,0 4,0 0,4" />
		<circle cx="6" cy="6" r="3.5" fill="red" />
	</g>

	<g transform='translate(510 158)'>
		<polygon points="0,12 12,12 
			12,7 15,7 15,5 12,5 
			12,0 4,0 0,4" />
		<circle cx="6" cy="6" r="3.5" fill="red" />
	</g>



	<g transform='translate(120 160)'>
		<polygon points="0,12 12,12 
			12,7 15,7 15,5 12,5 
			12,0 4,0 0,4" />
		<circle cx="6" cy="6" r="3.5" fill="red" />
	</g>

	<g transform='translate(71 200) rotate(180)'>
		<polygon points="0,12 12,12 
			12,7 15,7 15,5 12,5 
			12,0 4,0 0,4" />
		<circle cx="6" cy="6" r="3.5" fill="red" />
	</g>

	<g transform='translate(461 200) rotate(180)'>
		<polygon points="0,12 12,12 
			12,7 15,7 15,5 12,5 
			12,0 4,0 0,4" />
		<circle cx="6" cy="6" r="3.5" fill="red" />
	</g>

	<g transform='translate(510 188)'>
		<polygon points="0,12 12,12 
			12,7 15,7 15,5 12,5 
			12,0 4,0 0,4" />
		<circle cx="6" cy="6" r="3.5" fill="red" />
	</g>



	<g transform='translate(210 97)'>
		<polygon points="0,12 12,12 
			12,7 15,7 15,5 12,5 
			12,0 4,0 0,4" />
		<circle cx="6" cy="6" r="3.5" fill="red" />
	</g>
	<g transform='translate(132 260) rotate(180)'>
		<polygon points="0,12 12,12 
			12,7 15,7 15,5 12,5 
			12,0 4,0 0,4" />
		<circle cx="6" cy="6" r="3.5" fill="red" />
	</g>

	<g transform='translate(162 230) rotate(180)'>
		<polygon points="0,12 12,12 
			12,7 15,7 15,5 12,5 
			12,0 4,0 0,4" />
		<circle cx="6" cy="6" r="3.5" fill="red" />
	</g>


	<g transform='translate(120 190)'>
		<polygon points="0,12 12,12 
			12,7 15,7 15,5 12,5 
			12,0 4,0 0,4" />
		<circle cx="6" cy="6" r="3.5" fill="red" />
	</g>

	<g transform='translate(462 230) rotate(180)'>
		<polygon points="0,12 12,12 
			12,7 15,7 15,5 12,5 
			12,0 4,0 0,4" />
		<circle cx="6" cy="6" r="3.5" fill="red" />
	</g>
	-->


</svg>