<svg id="north" width="800" height="350">
	<style>

	g.powered circle.route {
		fill: #fb0 !important
	}
	
	g.unpowered circle.route {
		fill: #555;
		r : 3.5px;
	}

	/* As in power pack*/
	circle.pack {
		fill: yellow;
		r : 5px;
	}

	.heavy {
		font: bold 12px sans-serif;
	}
	</style>

	<defs>
		<g id="signal" transform="scale(0.7)">
			<polygon points="0,12 12,12 
				12,7 15,7 15,5 12,5 
				12,0 4,0 0,4" />
			<circle cx="6" cy="6" r="3.5" fill="red" />
		</g>
	</defs>

	<g transform="scale(2)">

	<polyline points="
		304 160 304 1  263 1 79 1" 
		stroke="pink" 
		stroke-width="1"
		fill="none"
		stroke-dasharray="1"
		stroke-linejoin="round"/>
	



	<!-- Track 3 -->
	<line x1="70" y1="120" x2="79" y2="129" 
		stroke="dodgerblue" stroke-width="5" />

	<polyline points="
		81 131 90 140 298 140 306 131" 
		stroke="dodgerblue" 
		stroke-width="5"
		fill="none"
		stroke-linejoin="round"/>

	<line x1="315" y1="120" x2="307" y2="129" 
		stroke="dodgerblue" stroke-width="5" />

	<use x="-170" y="-152" href="#signal" transform="rotate(180)" />


	<!-- end station -->

	<!-- tramway -->
	<line x1="80" y1="80" x2="180" y2="80" 
		stroke="orange" stroke-width="5" />

	<path d="M200,60 a20,20 0 0,1 -20,20" 
		fill="none" stroke="orange" stroke-width="5" />	

	<use x="-115" y="-92" href="#signal" transform="rotate(180)" />

	<line x1="200" y1="0" x2="200" y2="60" 
		stroke="orange" stroke-width="5" />

	<line x1="80" y1="75" x2="80" y2="85" 
		stroke="orange" stroke-width="3" />

	<!-- connector -->
	<line x1="130" y1="80" x2="138" y2="88" 
		stroke="orange" stroke-width="5" />


	<line x1="140" y1="90" x2="150" y2="100" 
		stroke="dimgray" stroke-width="5" />


	<!-- reversing loop -->
	<path d="M240,75 a25,25 0 0,1 -25,25" 
		fill="none" stroke="dimgray" stroke-width="5" />

	<line x1="240" y1="0" x2="240" y2="71" 
		stroke="orange" stroke-width="5" />

	

	<!-- Inner to outer cross overs -->
	<line x1="264" y1="109" x2="255" y2="100" 
		stroke="dimgray"
		style="stroke-width:5;" />
	
	<line x1="275" y1="120" x2="266" y2="111" 
		stroke="dimgray"
		style="stroke-width:5;" />


	<!-- Track 1/ inner -->

	<line x1="40" y1="0" x2="40" y2="80"
		stroke="black" stroke-width="10" />

	<path d="M65,100 a25,25 0 0,1 -25,-25" 
		fill="none" stroke="black" stroke-width="10" />	

	<line x1="64" y1="100" x2="80" y2="100" 
		stroke="black" stroke-width="10" />
	<line x1="82" y1="100" x2="302" y2="100" 
		stroke="black" stroke-width="10" />
	<line x1="306" y1="100" x2="335" y2="100" 
		stroke="black" stroke-width="10" />
	

	<path d="M360,75 a25,25 0 0,1 -25,25" 
		fill="none" stroke="black" stroke-width="10" />	

	<line x1="360" y1="0" x2="360" y2="80" 
		stroke="black" stroke-width="10" />

	<use x="320" y="85" href="#signal"  />


	<!-- Track 2/outer main line -->

	<line x1="20" y1="0" x2="20" y2="100" 
		stroke="black" stroke-width="10" />

	<path d="M45,120 a25,25 0 0,1 -25,-25" 
		fill="none" stroke="black" stroke-width="10" />	

	<line x1="45" y1="120" x2="80" y2="120" 
		stroke="black" stroke-width="10" />
	<line x1="82" y1="120" x2="302" y2="120" 
		stroke="black" stroke-width="10" />
	<line x1="306" y1="120" x2="355" y2="120" 
		stroke="black" stroke-width="10" />

	<path d="M380,95 a25,25 0 0,1 -25,25" 
		fill="none" stroke="black" stroke-width="10" />	

	<line x1="380" y1="0" x2="380" y2="95" 
		stroke="black" stroke-width="10" />

	<use x="-330" y="-135" href="#signal" transform="rotate(180)" />

	</g>
</svg>
