<svg id="north" width="400" height="300">
	<style>

	g.powered circle.route {
		fill: #fb0 !important
	}
	
	g.unpowered circle.route {
		fill: #555;
		r : 3.5px;
	}

	/* As in power pack*/
	circle.pack {
		fill: yellow;
		r : 5px;
	}

	/* manual override push buttons to move switch */
	circle.manual {
		r : 3.5px;
		fill : lime
	}

	.small {
		font: 6px sans-serif;
	}
	.heavy {
		font: bold 12px sans-serif;
	}

	circle.twtade {
		fill:black
	}
	</style>

	<!-- Words -->
		<!--
	<text x="230" y="140" class="heavy">Gleis 1</text>
	<text x="230" y="170" class="heavy">Gleis 2</text>
	<text x="230" y="200" class="heavy">Gleis 3</text>
	<text x="42" y="230" class="heavy">Gleis 4</text>
	<text x="42" y="260" class="heavy">Gleis 5</text>
	<text x="80" y="105" class="heavy">Gleis 6</text>
	-->
	
	<!-- mini panel -->
	<!--
	<circle cx="60" cy="30" r="3.5" fill="red" />
	<text x="65" y="33" class="small">Arduino Reset</text>
	<circle cx="60" cy="50" r="3.5" fill="blue" />
	<text x="65" y="53" class="small">Test Panel</text>
	<circle cx="60" cy="70" r="3.5" fill="blue" />
	<text x="65" y="73" class="small">Alternate</text>
	
	<circle cx="120" cy="30" r="3.5" fill="blue" />
	<text x="125" y="33" class="small">Day</text>
	<circle cx="120" cy="50" r="3.5" fill="blue" />
	<text x="125" y="53" class="small">Evening</text>
	<circle cx="120" cy="70" r="3.5" fill="blue" />
	<text x="125" y="73" class="small">Holiday</text>
	-->

	<!-- Station sidings -->
	<!-- Track 3 -->
	<line x1="89" y1="140" x2="313" y2="140" 
		stroke="gold" stroke-width="5" />

	<line x1="70" y1="120" x2="91" y2="141" 
		stroke="gold" stroke-width="5" />

	<line x1="329" y1="120" x2="311" y2="141" 
		stroke="gold" stroke-width="5" />

	<!-- Track 4 -->
	<line x1="20" y1="160" x2="130" y2="160" 
		stroke="dodgerblue" stroke-width="5" />

	<line x1="20" y1="180" x2="113" y2="180"
		stroke="dodgerblue" stroke-width="5" />


	<line x1="111" y1="181" x2="150" y2="140" 
		stroke="dodgerblue" stroke-width="5" />

	<!-- bumpers -->
	<line x1="20" y1="155" x2="20" y2="165" 
		stroke="dodgerblue" stroke-width="3" />	

	<line x1="20" y1="175" x2="20" y2="185" 
		stroke="dodgerblue" stroke-width="3" />	

	<!-- end station -->

	<!-- tramway -->
	<line x1="60" y1="60" x2="160" y2="60" 
		stroke="forestgreen" stroke-width="5" />

	<path d="M180,40 a20,20 0 0,1 -20,20" 
		fill="none" stroke="forestgreen" stroke-width="5" />	

	<line x1="180" y1="0" x2="180" y2="40" 
		stroke="forestgreen" stroke-width="5" />

	<line x1="60" y1="50" x2="60" y2="70" 
		stroke="forestgreen" stroke-width="3" />

	<line x1="130" y1="60" x2="170" y2="100" 
		stroke="forestgreen" stroke-width="5" />

	<!-- reversing loop -->
	<path d="M280,75 a25,25 0 0,1 -25,25" 
		fill="none" stroke="darkorange" stroke-width="5" />


	<line x1="280" y1="0" x2="280" y2="75" 
		stroke="darkorange" stroke-width="5" />

	<!-- Track 1/ inner -->
	<line x1="40" y1="0" x2="40" y2="80"
		stroke="black" stroke-width="10" />

	<path d="M65,100 a25,25 0 0,1 -25,-25" 
		fill="none" stroke="black" stroke-width="10" />	

	<line x1="64" y1="100" x2="339" y2="100" 
		style="stroke:black;stroke-width:10" />

	<path d="M360,75 a25,25 0 0,1 -25,25" 
		fill="none" stroke="black" stroke-width="10" />	

	<line x1="360" y1="0" x2="360" y2="85" 
		stroke="black" stroke-width="10" />

	<!-- Track 2/outer main line -->
	<line x1="20" y1="0" x2="20" y2="100" 
		stroke="black" stroke-width="10" />

	<path d="M45,120 a25,25 0 0,1 -25,-25" 
		fill="none" stroke="black" stroke-width="10" />	

	<line x1="45" y1="120" x2="355" y2="120" 
		stroke="black" stroke-width="10" />

	<path d="M380,95 a25,25 0 0,1 -25,25" 
		fill="none" stroke="black" stroke-width="10" />	

	<line x1="380" y1="0" x2="380" y2="95" 
		stroke="black" stroke-width="10" />

	<!-- Inner to outer cross overs -->
	<line x1="70" y1="100" x2="90" y2="120" 
		style="stroke:black;stroke-width:5;" />


	<line x1="330" y1="100" x2="310" y2="120" 
		style="stroke:black;stroke-width:5;" />

	<!-- Track holes -->
	<!-- Inner loop -->

	<g id="gleis1_1" class="unpowered">
		<circle cx="40" cy="20" class="pack" />

		<circle cx="40" cy="40" class="route" />
		<circle cx="40" cy="60" class="route" />
		<circle cx="40" cy="80" class="manual" />
		<circle cx="60" cy="100" class="route" />
	</g>
	<!-- curve -->
	
	<g id="gleis1_2" class="unpowered">
		<circle cx="80" cy="100" class="route" />
		<circle cx="100" cy="100" class="manual" />
		<circle cx="120" cy="100" class="pack" />
		<circle cx="140" cy="100" class="manual" />
		<circle cx="160" cy="100" class="route" />
	</g>
	<!-- switch-->
	
	<!-- switch-->
	<g id="gleis1_3" class="unpowered">
		<circle cx="180" cy="100" class="route" />
		<circle cx="200" cy="100" class="manual" />
		<circle cx="220" cy="100" class="route" />
		<circle cx="240" cy="100" class="pack" />
		<circle cx="260" cy="100" class="route" />
	</g>

	<g id="gleis1_4" class="unpowered">

		<circle cx="280" cy="100" class="route" />
		<circle cx="300" cy="100" class="manual" />
		<circle cx="320" cy="100" class="route" />
	</g>



	<!-- curve -->
	<g id="gleis1_5" class="unpowered">
		<circle cx="340" cy="100" class="route" />
		<circle cx="360" cy="80" class="manual" />
		<circle cx="360" cy="60" class="route" />
		<circle cx="360" cy="40" class="route" />
		<circle cx="360" cy="20" class="pack" />
	</g>
	

	<!-- Outer loop -->
	
	<g id="gleis2_1" class="unpowered">
		<circle cx="20" cy="20" class="pack" />

		<circle cx="20" cy="40" class="route" />
		<circle cx="20" cy="60" class="route" />
		<circle cx="20" cy="80" class="route" />
		<circle cx="20" cy="100" class="route" />
		<circle cx="40" cy="120" class="manual" />

		<circle cx="60" cy="120" class="route" />
	</g>
	<!-- end curve -->

	<g id="gleis2_2" class="unpowered">
		<circle cx="80" cy="120" class="route" />
	</g>
	<g id="gleis12" class="unpowered">
		<circle cx="80" cy="110" class="route" />
	</g>


	<g id="gleis2_3" class="unpowered">
		<circle cx="100" cy="120" class="route" />
		<circle cx="120" cy="120" class="manual" />
		<circle cx="140" cy="120" class="route" />
		<circle cx="160" cy="120" class="route" />
		<circle cx="180" cy="120" class="route" />

		<circle cx="200" cy="120" class="pack" />
	
		<circle cx="220" cy="120" class="route" />
		<circle cx="240" cy="120" class="route" />
		<circle cx="260" cy="120" class="route" />
		<circle cx="280" cy="120" class="manual" />
		<circle cx="300" cy="120" class="route" />
	</g>
	
	<g id="gleis2_4" class="unpowered">
		<circle cx="320" cy="120" class="route" />
	</g>
	<g id="gleis21" class="unpowered">
		<circle cx="320" cy="110" class="route" /><!-- crossover -->
	</g>


	<!-- start curve -->
	<g id="gleis2_5" class="unpowered">
		<circle cx="340" cy="120" class="route" />
		<circle cx="360" cy="120" class="manual" />
		<circle cx="380" cy="100" class="route" />
		<circle cx="380" cy="80" class="route" />
		<circle cx="380" cy="60" class="route" />
		<circle cx="380" cy="40" class="route" />
		<circle cx="380" cy="20" class="pack" />
	</g>

	
	<!-- end outer loop -->

	<!-- Track 3 start station -->
	<g id="gleis3_1" class="unpowered">
		<circle cx="80" cy="130" class="route" />
		<circle cx="100" cy="140" class="manual" />
		<circle cx="120" cy="140" class="manual" />
		<circle cx="140" cy="140" class="route" />
	</g>

	<g id="gleis3_2" class="unpowered">
		<circle cx="160" cy="140" class="route" />
		<circle cx="180" cy="140" class="route" />
		<circle cx="200" cy="140" class="route" />

		<circle cx="220" cy="140" class="pack" />

		<circle cx="240" cy="140" class="route" />
		<circle cx="260" cy="140" class="route" />
		<circle cx="280" cy="140" class="route" />
		<circle cx="300" cy="140" class="manual" />
		<circle cx="320" cy="130" class="route" /><!-- station -->
	</g>
	


	<!-- Reset to stub tracks -->
	

	<g id="gleis4_1" class="unpowered">
		<circle cx="40" cy="160" class="pack" />
		<circle cx="60" cy="160" class="route" />
		<circle cx="80" cy="160" class="route" />
		<circle cx="100" cy="160" class="manual" />
		<circle cx="120" cy="160" class="route" />
	</g>

	


	<g id="gleis5_1" class="unpowered">
		<circle cx="40" cy="180" class="pack" />
		<circle cx="100" cy="180" class="manual" />
		<circle cx="60" cy="180" class="route" />
		<circle cx="80" cy="180" class="route" />
		<circle cx="120" cy="170" class="route" /><!-- switch -->
	</g>
	<!-- end station -->

	<g id="gleis5_2" class="unpowered">
		<circle cx="140" cy="150" class="route" /><!-- switch -->
	</g>


	<!-- start tram -->
	<g id="gleis6_1" class="unpowered">
		<circle cx="80" cy="60" class="pack" />

		<circle cx="100" cy="60" class="route" />
		<circle cx="120" cy="60" class="route" />
	</g>
	<g id="gleis6_2" class="unpowered">
		<circle cx="140" cy="70" class="route" /><!-- switch -->
		<circle cx="160" cy="90" class="route" /><!-- switch -->
	</g>
	<g id="gleis6_3" class="unpowered">
		<circle cx="140" cy="60" class="route" />
		<circle cx="160" cy="60" class="manual" />
		<circle cx="180" cy="40" class="route" />
		<circle cx="180" cy="20" class="pack" />
	</g>	
	
	
	
	<!-- end tram -->

	<!-- start reversing loop-->
	
	<g id="gleis7_1" class="unpowered">
		<circle cx="280" cy="20" class="pack" />
		<circle cx="280" cy="40" class="route" />
		<circle cx="280" cy="60" class="manual" />
		<circle cx="280" cy="80" class="route" />
		
	</g>
	
	<!-- Non track holes -->
	<circle cx="485" cy="30" r="11" class="twtade" />
	<text x="470" y="50" class="small">Gleis 1, 6</text>
	<circle cx="485" cy="70" r="11" class="twtade" />
	<text x="470" y="90" class="small">Gleis 2</text>
	<circle cx="485" cy="110" r="11" class="twtade" />
	<text x="470" y="130" class="small">Gleis 3, 4, 5</text>


	<!-- 12 x 12 proto type-->
	<!--
	<polygon points="0,12 12,12 
		12,7 15,7 15,5 12,5 
		12,0 4,0 0,4" />
	<circle cx="6" cy="6" r="3.5" fill="red" />
	-->

	<!-- Tram and loop -->
	<!--
	<g transform='translate(132 290) rotate(180)'>
		<polygon points="0,12 12,12 
			12,7 15,7 15,5 12,5 
			12,0 4,0 0,4" />
		<circle cx="6" cy="6" r="3.5" fill="red" />
	</g>

	<g transform='translate(317 97) rotate(270)'>
		<polygon points="0,12 12,12 
			12,7 15,7 15,5 12,5 
			12,0 4,0 0,4" />
		<circle cx="6" cy="6" r="3.5" fill="red" />
	</g>
	
	
	<g transform='translate(120 130)'>
		<polygon points="0,12 12,12 
			12,7 15,7 15,5 12,5 
			12,0 4,0 0,4" />
		<circle cx="6" cy="6" r="3.5" fill="red" />
	</g>

	<g transform='translate(71 170) rotate(180)'>
		<polygon points="0,12 12,12 
			12,7 15,7 15,5 12,5 
			12,0 4,0 0,4" />
		<circle cx="6" cy="6" r="3.5" fill="red" />
	</g>

	<g transform='translate(191 170) rotate(180)'>
		<polygon points="0,12 12,12 
			12,7 15,7 15,5 12,5 
			12,0 4,0 0,4" />
		<circle cx="6" cy="6" r="3.5" fill="red" />
	</g>

	<g transform='translate(330 130)'>
		<polygon points="0,12 12,12 
			12,7 15,7 15,5 12,5 
			12,0 4,0 0,4" />
		<circle cx="6" cy="6" r="3.5" fill="red" />
	</g>

	<g transform='translate(460 170) rotate(180)'>
		<polygon points="0,12 12,12 
			12,7 15,7 15,5 12,5 
			12,0 4,0 0,4" />
		<circle cx="6" cy="6" r="3.5" fill="red" />
	</g>

	<g transform='translate(510 158)'>
		<polygon points="0,12 12,12 
			12,7 15,7 15,5 12,5 
			12,0 4,0 0,4" />
		<circle cx="6" cy="6" r="3.5" fill="red" />
	</g>



	<g transform='translate(120 160)'>
		<polygon points="0,12 12,12 
			12,7 15,7 15,5 12,5 
			12,0 4,0 0,4" />
		<circle cx="6" cy="6" r="3.5" fill="red" />
	</g>

	<g transform='translate(71 200) rotate(180)'>
		<polygon points="0,12 12,12 
			12,7 15,7 15,5 12,5 
			12,0 4,0 0,4" />
		<circle cx="6" cy="6" r="3.5" fill="red" />
	</g>

	<g transform='translate(461 200) rotate(180)'>
		<polygon points="0,12 12,12 
			12,7 15,7 15,5 12,5 
			12,0 4,0 0,4" />
		<circle cx="6" cy="6" r="3.5" fill="red" />
	</g>

	<g transform='translate(510 188)'>
		<polygon points="0,12 12,12 
			12,7 15,7 15,5 12,5 
			12,0 4,0 0,4" />
		<circle cx="6" cy="6" r="3.5" fill="red" />
	</g>



	<g transform='translate(210 97)'>
		<polygon points="0,12 12,12 
			12,7 15,7 15,5 12,5 
			12,0 4,0 0,4" />
		<circle cx="6" cy="6" r="3.5" fill="red" />
	</g>
	<g transform='translate(132 260) rotate(180)'>
		<polygon points="0,12 12,12 
			12,7 15,7 15,5 12,5 
			12,0 4,0 0,4" />
		<circle cx="6" cy="6" r="3.5" fill="red" />
	</g>

	<g transform='translate(162 230) rotate(180)'>
		<polygon points="0,12 12,12 
			12,7 15,7 15,5 12,5 
			12,0 4,0 0,4" />
		<circle cx="6" cy="6" r="3.5" fill="red" />
	</g>


	<g transform='translate(120 190)'>
		<polygon points="0,12 12,12 
			12,7 15,7 15,5 12,5 
			12,0 4,0 0,4" />
		<circle cx="6" cy="6" r="3.5" fill="red" />
	</g>

	<g transform='translate(462 230) rotate(180)'>
		<polygon points="0,12 12,12 
			12,7 15,7 15,5 12,5 
			12,0 4,0 0,4" />
		<circle cx="6" cy="6" r="3.5" fill="red" />
	</g>
	-->


</svg>