<?xml version="1.0" encoding="UTF-8" standalone="no"?>
<svg
   id="side"
   width="426mm"
   height="274mm"
   version="1.1"
   sodipodi:docname="Panel v12 North.svg"
   inkscape:version="1.2.2 (732a01da63, 2022-12-09)"
   xmlns:inkscape="http://www.inkscape.org/namespaces/inkscape"
   xmlns:sodipodi="http://sodipodi.sourceforge.net/DTD/sodipodi-0.dtd"
   xmlns="http://www.w3.org/2000/svg"
   xmlns:svg="http://www.w3.org/2000/svg">
  <defs
     id="defs200" />
  <sodipodi:namedview
     id="namedview198"
     pagecolor="#ffffff"
     bordercolor="#000000"
     borderopacity="0.25"
     inkscape:showpageshadow="2"
     inkscape:pageopacity="0.0"
     inkscape:pagecheckerboard="0"
     inkscape:deskcolor="#d1d1d1"
     showgrid="false"
     inkscape:zoom="0.86131387"
     inkscape:cx="785.42797"
     inkscape:cy="509.10593"
     inkscape:window-width="1845"
     inkscape:window-height="1212"
     inkscape:window-x="-6"
     inkscape:window-y="-6"
     inkscape:window-maximized="1"
     inkscape:current-layer="side"
     inkscape:document-units="mm" />
  <polyline
     points="  13,10  13,40  10,40  10,70  13,70  13,100  10,100  10,130  13,130  13,160  10,160  10,190  13,190  13,220  10,220  10,250  13,250  13,264  413,264  413,250  416,250  416,220  413,220  413,190  416,190  416,160  413,160  413,130  416,130  416,100  413,100  413,70  416,70  416,40  413,40  413,10  10,10  "
     id="polyline195"
     transform="scale(3.7795276)" />
  <circle
     style="fill:#ffff00;stroke-width:1.88976"
     id="path262-15-0-1"
     cx="1373.8583"
     cy="126.61417"
     r="13.228347" />
  <circle
     style="fill:#ff7f2a;stroke-width:1.61979"
     id="path262-1-8-9-6-3-8"
     cx="1371.9685"
     cy="238.11023"
     r="11.338583" />
  <circle
     style="fill:#ff7f2a;stroke-width:1.61979"
     id="path262-1-8-9-6-3-5"
     cx="1371.9685"
     cy="351.49606"
     r="11.338583" />
  <circle
     style="fill:#ff7f2a;stroke-width:1.61979"
     id="path262-1-8-9-6-3-7"
     cx="1296.3779"
     cy="578.2677"
     r="11.338583" />
  <circle
     style="fill:#ff7f2a;stroke-width:1.61979"
     id="path262-1-8-9-6-3-6"
     cx="1220.7874"
     cy="578.2677"
     r="11.338583" />
  <circle
     style="fill:#008000;stroke-width:1.88976"
     id="path262-4-5-6-0"
     cx="1373.8583"
     cy="466.77167"
     r="13.228347" />
  <circle
     style="fill:#008000;stroke-width:1.88976"
     id="path262-4-5-6-6"
     cx="1147.0867"
     cy="580.15747"
     r="13.228347" />
  <circle
     style="fill:#ff7f2a;stroke-width:1.61979"
     id="path262-1-8-9-6-9"
     cx="1069.6063"
     cy="578.2677"
     r="11.338583" />
  <circle
     style="fill:#ff7f2a;stroke-width:1.61979"
     id="path262-1-8-9-6-3"
     cx="994.01575"
     cy="578.2677"
     r="11.338583" />
  <circle
     style="fill:#ffff00;stroke-width:1.88976"
     id="path262-15-0"
     cx="920.31494"
     cy="580.15747"
     r="13.228347" />
  <circle
     style="fill:#ff7f2a;stroke-width:1.61979"
     id="path262-1-8-9-8"
     cx="842.83466"
     cy="578.2677"
     r="11.338583" />
  <circle
     style="fill:#008000;stroke-width:1.88976"
     id="path262-4-5-6"
     cx="769.13385"
     cy="580.15747"
     r="13.228347" />
  <circle
     style="fill:#ff7f2a;stroke-width:1.61979"
     id="path262-1-8-9-6"
     cx="691.65356"
     cy="578.2677"
     r="11.338583" />
  <circle
     style="fill:#ff7f2a;stroke-width:1.61979"
     id="path262-1-8-9-7"
     cx="616.06299"
     cy="578.2677"
     r="11.338583" />
  <circle
     style="fill:#008000;stroke-width:1.88976"
     id="path262-4-5-8"
     cx="542.36218"
     cy="580.15747"
     r="13.228347" />
  <circle
     style="fill:#ffff00;stroke-width:1.88976"
     id="path262-15"
     cx="466.77167"
     cy="580.15747"
     r="13.228347" />
  <circle
     style="fill:#008000;stroke-width:1.88976"
     id="path262-4-5"
     cx="391.18109"
     cy="580.15747"
     r="13.228347" />
  <circle
     style="fill:#ff7f2a;stroke-width:1.61979"
     id="path262-1-8-9"
     cx="313.70078"
     cy="578.2677"
     r="11.338583" />
  <circle
     style="fill:#008000;stroke-width:1.88976"
     id="path262-4"
     cx="164.40945"
     cy="466.77167"
     r="13.228347" />
  <circle
     style="fill:#ff7f2a;stroke-width:1.61979"
     id="path262-1-8"
     cx="238.11023"
     cy="578.2677"
     r="11.338583" />
  <circle
     style="fill:#ff7f2a;stroke-width:1.61979"
     id="path262-1-4"
     cx="162.51968"
     cy="351.49606"
     r="11.338583" />
  <circle
     style="fill:#ff7f2a;stroke-width:1.61979"
     id="path262-1"
     cx="162.51968"
     cy="238.11023"
     r="11.338583" />
  <circle
     style="fill:#ffff00;stroke-width:1.88976"
     id="path262"
     cx="164.40945"
     cy="126.61418"
     r="13.228347" />
</svg>
