<?xml version="1.0" encoding="UTF-8" standalone="no"?>
<svg
	id="side"
	width="426"
	height="274"
	version="1.1"
	xmlns="http://www.w3.org/2000/svg"
	xmlns:svg="http://www.w3.org/2000/svg">


<polyline points="
	13,10
	13,40
	10,40
	10,70
	13,70
	13,100
	10,100
	10,130
	13,130
	13,160
	10,160
	10,190
	13,190
	13,220
	10,220
	10,250
	13,250
	13,264
	413,264
	413,250
	416,250
	416,220
	413,220
	413,190
	416,190
	416,160
	413,160
	413,130
	416,130
	416,100
	413,100
	413,70
	416,70
	416,40
	413,40
	413,10
	10,10
	" />

</svg>