<?xml version="1.0" encoding="UTF-8" standalone="no"?>
<svg
	id="side"
	width="426"
	height="274"
	version="1.1"
	xmlns="http://www.w3.org/2000/svg"
	xmlns:svg="http://www.w3.org/2000/svg">


<polyline points="
	13,10
	13,40
	10,40
	10,70
	13,70
	13,100
	10,100
	10,130
	13,130
	13,160
	10,160
	10,190
	13,190
	13,220
	10,220
	10,250
	13,250
	13,264
	403,264
	403,250
	406,250
	406,220
	403,220
	403,190
	406,190
	406,160
	403,160
	403,130
	406,130
	406,100
	403,100
	403,70
	406,70
	406,40
	403,40
	403,10
	10,10
	" />

</svg>