<?xml version="1.0" encoding="UTF-8" standalone="no"?>
<svg
   id="side"
   width="226"
   height="276"
   version="1.1"
   sodipodi:docname="side v12 with hole.svg"
   inkscape:version="1.2.2 (732a01da63, 2022-12-09)"
   xmlns:inkscape="http://www.inkscape.org/namespaces/inkscape"
   xmlns:sodipodi="http://sodipodi.sourceforge.net/DTD/sodipodi-0.dtd"
   xmlns="http://www.w3.org/2000/svg"
   xmlns:svg="http://www.w3.org/2000/svg">
  <defs
     id="defs125" />
  <sodipodi:namedview
     id="namedview123"
     pagecolor="#ffffff"
     bordercolor="#000000"
     borderopacity="0.25"
     inkscape:showpageshadow="2"
     inkscape:pageopacity="0.0"
     inkscape:pagecheckerboard="0"
     inkscape:deskcolor="#d1d1d1"
     showgrid="false"
     inkscape:zoom="3.5036232"
     inkscape:cx="112.88314"
     inkscape:cy="138"
     inkscape:window-width="1845"
     inkscape:window-height="1212"
     inkscape:window-x="-6"
     inkscape:window-y="-6"
     inkscape:window-maximized="1"
     inkscape:current-layer="side" />
  <!-- 50mm front to back on top-->
  <polyline
     points="  13,13  13,38  10,38  10,78  13,78  13,118  10,118  10,158  13,158  13,198  10,198  10,238  13,238  13,266  13,266  28,266  28,263  48,263  48,266  63,266   71.55, 254.66  69.15, 252.85  87.21, 228.90  89.60, 230.70  107.66,206.74  105.26,204.94  123.32,180.98  125.72,182.79  143.77,158.83  141.38,157.02  159.43,133.07  161.83,134.87  179.89,110.91  177.49,109.11  195.55, 85.15  197.94, 86.96   216,63  216,48  213,48  213,28  216,28  216,13   206,13  206,10  186,10  186,13  166,13  166,10  146,10  146,13  126,13  126,10  106,10  106,13  86,13  86,10  66,10  66,13  45,13  45,10  25,10  25,13  13,13  "
     id="polyline120" />
  <circle
     style="fill:#ffffff;stroke-width:1"
     id="path179"
     cx="68.031494"
     cy="68.031494"
     r="30.236221" />
</svg>
