<?xml version="1.0" encoding="UTF-8" standalone="no"?>
<svg
	id="side"
	width="226"
	height="276"
	version="1.1"
	xmlns="http://www.w3.org/2000/svg"
	xmlns:svg="http://www.w3.org/2000/svg">

<!-- 50mm front to back on top-->

<polyline points="
	13,13
	13,38
	10,38
	10,78
	13,78
	13,118
	10,118
	10,158
	13,158
	13,198
	10,198
	10,238
	13,238
	13,266
	13,266
	28,266
	28,263
	48,263
	48,266
	63,266
	
	216,63
	216,48
	213,48
	213,28
	216,28
	216,13

	206,13
	206,10
	186,10
	186,13
	166,13
	166,10
	146,10
	146,13
	126,13
	126,10
	106,10
	106,13
	86,13
	86,10
	66,10
	66,13
	45,13
	45,10
	25,10
	25,13
	13,13
	" />

</svg>