<svg id="south" width="426" height="260">
	<style>

	g.powered circle.route {
		fill: #fb0 !important
	}
	
	g.unpowered circle.route {
		fill: #555;
		r : 3.5px;
	}

	/* As in power pack*/
	circle.pack {
		cursor: pointer;
		fill: yellow;
		r : 5px;
	}

	/* manual override push buttons to move switch */
	circle.manual {
		r : 3.5px;
		fill : lime
	}
	</style>


	<polyline points="
	13,10
	13,40
	10,40
	10,70
	13,70
	13,100
	10,100
	10,130
	13,130
	13,160
	10,160
	10,190
	13,190
	13,220
	10,220
	10,250
	13,250
	13,264
	413,264
	413,250
	416,250
	416,220
	413,220
	413,190
	416,190
	416,160
	413,160
	413,130
	416,130
	416,100
	413,100
	413,70
	416,70
	416,40
	413,40
	413,10
	10,10
	" />

	<!-- Cutover switches -->
	<!-- Track 1 -->
	<circle cx="340" cy="200" r="2.3" fill="orange" />
	<circle cx="340" cy="236" r="2.3" fill="orange" />
	<circle cx="358" cy="218" r="4.3" fill="orange" />
	<circle cx="376" cy="236" r="2.3" fill="orange" />
	<circle cx="376" cy="200" r="2.3" fill="orange" />

	<!-- Track 2 -->
	<circle cx="40" cy="200" r="2.3" fill="orange" />
	<circle cx="40" cy="236" r="2.3" fill="orange" />
	<circle cx="58" cy="218" r="4.3" fill="orange" />
	<circle cx="76" cy="236" r="2.3" fill="orange" />
	<circle cx="76" cy="200" r="2.3" fill="orange" />

	<!-- Reversing Track -->
	<circle cx="170" cy="40" r="2.3" fill="orange" />
	<circle cx="206" cy="40" r="2.3" fill="orange" />
	<circle cx="188" cy="58" r="4.3" fill="orange" />
	<circle cx="206" cy="76" r="2.3" fill="orange" />
	<circle cx="170" cy="76" r="2.3" fill="orange" />

	<!-- LED Matrix -->
	<!-- glue it in? 
	<circle cx="83" cy="38" r="1" fill="orange" />
	<circle cx="83" cy="62" r="1" fill="orange" />
	<circle cx="97" cy="62" r="1" fill="orange" />
	<circle cx="97" cy="38" r="1" fill="orange" />
	-->
	<polyline points="
		80,40
		80,60
		100,60
		100,40
		80,40"
		fill="white"
		/>

	<!-- MCP23017 IO Expander mounting -->
	<circle cx="150" cy="90" r="1.5" fill="white" />
	<circle cx="188" cy="90" r="1.5" fill="white" />
	<circle cx="150" cy="103" r="1.5" fill="white" />
	<circle cx="188" cy="103" r="1.5" fill="white" />




	<!-- mini panel -->
	<circle cx="270" cy="30" r="3" fill="red" />
	<circle cx="270" cy="50" r="3" fill="white" />
	<circle cx="270" cy="70" r="3" fill="white" />
	<circle cx="270" cy="90" r="3" fill="white" />

	<!-- yard sidings begin -->
	<line x1="219" y1="110" x2="280" y2="110" 
		stroke="white" stroke-width="5" />

	<line x1="199" y1="130" x2="220" y2="110" 
		stroke="white" stroke-width="5" />

	<!-- Track 3 -->
	<line x1="140" y1="150" x2="160" y2="170" 
		stroke="white" stroke-width="5" />

	<line x1="280" y1="150" x2="260" y2="170" 
		stroke="white" stroke-width="5" />

	<line x1="160" y1="170" x2="320" y2="170" 
		stroke="white" stroke-width="5" />


	<!-- crossover-->
	<line x1="345" y1="150" x2="315" y2="130" 
		stroke="white" stroke-width="5" />


	<!-- intermodal connector -->
	<line x1="100" y1="150" x2="180" y2="230" 
		stroke="white" stroke-width="5" />

	<!-- intermodal 4-->
	<line x1="138" y1="190" x2="290" y2="190" 
		stroke="white" stroke-width="5" />

	<!-- intermodal 5-->
	<line x1="158" y1="210" x2="290" y2="210" 
		stroke="white" stroke-width="5" />

	<!-- intermodal 6-->
	<line x1="178" y1="230" x2="260" y2="230" 
		stroke="white" stroke-width="5" />


	<!-- reversing loop -->
	<path d="M130,105 a25,25 0 0,1 -25,25" 
		fill="none" stroke="white" stroke-width="5" />

	<line x1="130" y1="11" x2="130" y2="105" 
		stroke="white" stroke-width="5" />

	
	<!-- inner main line -->
	<line x1="30" y1="11" x2="30" y2="106"
		stroke="white" stroke-width="10" />

	<path d="M55,130 a25,25 0 0,1 -25,-25" 
		fill="none" stroke="white" stroke-width="10" />

	<line x1="55" y1="130" x2="345" y2="130" 
		stroke="white" stroke-width="10"/>

	<path d="M370,105 a25,25 0 0,1 -25,25" 
		fill="none" stroke="white" stroke-width="10" />

	<line x1="370" y1="11" x2="370" y2="105" 
		stroke="white" stroke-width="10" />

	
	<!-- outer main line -->
	<line x1="50" y1="11" x2="50" y2="125" 
		stroke="white" stroke-width="10" />

	<path d="M75,150 a25,25 0 0,1 -25,-25" 
		fill="none" stroke="white" stroke-width="10" />

	<line x1="73" y1="150" x2="365" y2="150" 
		stroke="white" stroke-width="10" />

	<path d="M390,125 a25,25 0 0,1 -25,25" 
		fill="none" stroke="white" stroke-width="10" />	

	<line x1="390" y1="11" x2="390" y2="126" 
		stroke="white" stroke-width="10" />


	<!-- bumpers -->
	<line x1="280" y1="105" x2="280" y2="115" 
		stroke="white" stroke-width="3" />

	<line x1="320" y1="165" x2="320" y2="175" 
		stroke="white" stroke-width="3" />

	<line x1="290" y1="185" x2="290" y2="195" 
		stroke="white" stroke-width="3" />

	<line x1="290" y1="205" x2="290" y2="215" 
		stroke="white" stroke-width="3" />

	<line x1="260" y1="225" x2="260" y2="235" 
		stroke="white" stroke-width="3" />

	<!-- yard sidings end -->


	<!-- Track 1 -->
	<g id="gleis1_1" class="unpowered">
		<circle cx="30" cy="30" class="route" />
		<circle cx="30" cy="50" class="pack" />
		<circle cx="30" cy="70" class="route" />
		<circle cx="30" cy="90" class="route" />
		<circle cx="30" cy="110" class="route" />
		<circle cx="70" cy="130" class="route" />
		<circle cx="90" cy="130" class="route" />
		<circle cx="110" cy="130" class="route" />
		
	</g>

	<g id="gleis1_2" class="unpowered">
		<circle cx="130" cy="130"  class="route" />
		<circle cx="150" cy="130" class="manual" />
		<circle cx="170" cy="130" class="pack" />
		<circle cx="190" cy="130" class="route" />

		<circle cx="140" cy="120" r="3" fill="red" />
	</g>

	<g id="gleis1_3" class="unpowered">
		<circle cx="210" cy="130" class="route" />
		<circle cx="230" cy="130" class="manual" />
		<circle cx="250" cy="130" class="pack" />
		<circle cx="270" cy="130" class="route" />
		<circle cx="290" cy="130" class="manual" />
		<circle cx="310" cy="130" class="route" />

		<circle cx="220" cy="120" r="3" fill="red" />

	</g>

	<g id="gleis1_4" class="unpowered">
		<circle cx="330" cy="130" class="route" />
		<circle cx="350" cy="130" class="manual" />
		<circle cx="370" cy="110" class="route" />
		<circle cx="370" cy="90" class="route" />
		<circle cx="370" cy="70" class="route" />
		<circle cx="370" cy="50" class="pack" />
		<circle cx="370" cy="30" class="route" />

		<circle cx="340" cy="120" r="3" fill="red" />
	</g>



	<g id="gleis12" class="unpowered">
		<circle cx="330" cy="140" class="route" /><!-- cross over from 1 to 2 -->
	</g>

	<!-- Outer loop start-->
	<g id="gleis2_1" class="unpowered">
		<circle cx="50" cy="30" class="pack" />
		<circle cx="50" cy="50" class="route" />
		<circle cx="50" cy="70" class="route" />
		<circle cx="50" cy="90" class="route" />
		<circle cx="50" cy="110" class="route" />
		<circle cx="50" cy="130" class="route" />
		<!-- curve -->
		<circle cx="70" cy="150" class="route" />
		<circle cx="90" cy="150" class="route" />
	</g>

	<!-- This has no separate power -->
	<g id="gleis2_2" class="unpowered">
		<circle cx="110" cy="150" class="route" />
		<circle cx="130" cy="150" class="route" />

		<circle cx="120" cy="140" r="3" fill="red" />
	</g>


	<g id="gleis2_3" class="unpowered">
		<circle cx="150" cy="150" class="route" />
		<circle cx="170" cy="150" class="manual" />
		<circle cx="190" cy="150" class="route" />
		<circle cx="210" cy="150" class="pack" />
		<circle cx="230" cy="150" class="route" />
		<circle cx="250" cy="150" class="manual" />
		<circle cx="270" cy="150" class="route" />

		<circle cx="160" cy="140" r="3" fill="red" />
		<circle cx="260" cy="160" r="3" fill="red" />
	</g>

	<g id="gleis2_4" class="unpowered">
		<circle cx="290" cy="150" class="route" />
		<circle cx="310" cy="150" class="pack" />
		<circle cx="330" cy="150" class="route" />

		<circle cx="320" cy="160" r="3" fill="red" />
	</g>

	<g id="gleis2_5" class="unpowered">
		<circle cx="350" cy="150" class="route" />
		<circle cx="370" cy="150" class="manual" />
		<circle cx="390" cy="130" class="route" />
		<circle cx="390" cy="110" class="route" />
		<circle cx="390" cy="90" class="route" />
		<circle cx="390" cy="70" class="route" />
		<circle cx="390" cy="50" class="route" />
		<circle cx="390" cy="30" class="pack" />
	</g>
	

	<!-- siding start -->
	<g id="gleis3_1" class="unpowered">
		<circle cx="150" cy="160" class="route" />
		<circle cx="170" cy="170" r="3" fill="cyan" />
		<circle cx="190" cy="170" class="route" />
		<circle cx="210" cy="170" class="route" />
		<circle cx="230" cy="170" r="3" fill="violet" />
		<circle cx="250" cy="170" class="route" />

		<circle cx="160" cy="160" r="3" fill="red" />
	</g>

	<g id="gleis32" class="unpowered">
		<circle cx="270" cy="160" class="route" /><!-- cross over-->

	</g>

	<g id="gleis3_2" class="unpowered">
		<circle cx="270" cy="170" class="route" />
		<circle cx="290" cy="170" r="3" fill="cyan" />
		<circle cx="310" cy="170" r="3" fill="violet" />

		<circle cx="280" cy="160" r="3" fill="red" />
	</g>

	<!-- Outer loop end -->

	<!-- Yard start-->
	<g id="gleis4_1" class="unpowered">
		<circle cx="150" cy="190" class="route" />
		<circle cx="170" cy="190" r="3" fill="cyan" />
		<circle cx="190" cy="190" class="route" />
		<circle cx="210" cy="190" class="route" />
		<circle cx="230" cy="190" class="route" />
		<circle cx="250" cy="190" class="route" />
		<circle cx="270" cy="190" r="3" fill="violet" />

		<circle cx="160" cy="180" r="3" fill="red" />
	</g>

	<g id="gleis5_1" class="unpowered">
		<circle cx="170" cy="210" class="route" />
		<circle cx="190" cy="210" r="3" fill="cyan" />
		<circle cx="210" cy="210" class="route" />
		<circle cx="230" cy="210" class="route" />
		<circle cx="250" cy="210" r="3" fill="violet" />
		<circle cx="270" cy="210" class="route" />

		<circle cx="180" cy="200" r="3" fill="red" />
	</g>

	<g id="gleis6_1" class="unpowered">	
		<circle cx="110" cy="160" class="route" />

		<circle cx="130" cy="180" class="route" />
	</g>
	<g id="gleis6_2" class="unpowered">	
		<circle cx="150" cy="200" class="route" />
	</g>

	<g id="gleis6_3" class="unpowered">
		<circle cx="170" cy="220" class="route" />
		<circle cx="190" cy="230" r="3" fill="cyan" />
		<circle cx="210" cy="230" class="route" />
		<circle cx="230" cy="230" r="3" fill="violet" />
		<circle cx="250" cy="230" class="route" />

		<circle cx="180" cy="220" r="3" fill="red" />
	</g>


	<g id="gleis7_1" class="unpowered">
		<circle cx="210" cy="120" class="route" />
		<circle cx="230" cy="110" r="3" fill="cyan" />
		<circle cx="250" cy="110" r="3" fill="violet" />
		<circle cx="270" cy="110" class="route" />

		<circle cx="220" cy="100" r="3" fill="red" />
	</g>	
	<!-- Yard end -->

	<!-- Turn around-->
	<g id="gleis8_1" class="unpowered">
		<circle cx="130" cy="30" r="3" fill="violet" />
		<circle cx="130" cy="50" class="route" />
		<circle cx="130" cy="70" class="route" />
		<circle cx="130" cy="90" r="3" fill="cyan" />
		<circle cx="130" cy="110" class="route" />

		<circle cx="120" cy="100" r="3" fill="red" />
	</g>
	

	
	<!-- Non track holes -->
	<!--
	<circle cx="375" cy="30" r="11" class="twtade" />
	<text x="360" y="50" class="small">Gleis 1, 0</text>
	<circle cx="425" cy="30" r="11" class="twtade" />
	<text x="410" y="50" class="small">Gleis 2, 3</text>
	<circle cx="475" cy="30" r="11" class="twtade" />
	<text x="460" y="50" class="small">Gleis 4, 5, 6</text>
	-->


</svg>