<svg id="svg" width="600" height="300">
	<style>

	g.unpowered circle {
		fill: #555
	}
	
	g.powered circle {
		fill: #fb0;
	}

	g.stop circle {
		fill : red
	}
	
	g.go circle {
		fill : yellowgreen
	}
	
	.small {
		font: 7px sans-serif;
	}
	.heavy {
		font: bold 11px sans-serif;
	}

	circle.twtade {
		fill:black
	}
	</style>

	<!-- Words -->
	<text x="422" y="106" class="heavy">Gleis 0</text>
	<text x="362" y="136" class="heavy">Gleis 1</text>
	<text x="362" y="166" class="heavy">Gleis 2</text>
	<text x="362" y="196" class="heavy">Gleis 3</text>
	<text x="422" y="226" class="heavy">Gleis 4</text>
	<text x="422" y="256" class="heavy">Gleis 5</text>
	<text x="422" y="286" class="heavy">Gleis 6</text>
	
	<!-- mini panel -->
	<circle cx="120" cy="30" r="3.5" fill="red" />
	<text x="130" y="33" class="small">Arduino Reset</text>
	<circle cx="120" cy="50" r="3.5" fill="blue" />
	<text x="130" y="53" class="small">Test Panel</text>
	<circle cx="120" cy="70" r="3.5" fill="blue" />
	<text x="130" y="73" class="small">Alternate</text>

	<!-- yard sidings begin -->
	<line x1="378" y1="90" x2="470" y2="90" 
		stroke="blue" stroke-width="5" />

	<line x1="350" y1="120" x2="380" y2="90" 
		stroke="blue" stroke-width="5" />

	<line x1="290" y1="150" x2="320" y2="180" 
		stroke="skyblue" stroke-width="5" />

	<line x1="470" y1="150" x2="440" y2="180" 
		stroke="skyblue" stroke-width="5" />

	<!-- crossover-->
	<line x1="500" y1="150" x2="470" y2="120" 
		stroke="blue" stroke-width="5" />

	<line x1="318" y1="180" x2="530" y2="180" 
		stroke="skyblue" stroke-width="5" />

	<!-- intermodal connector -->
	<line x1="230" y1="150" x2="350" y2="270" 
		stroke="skyblue" stroke-width="5" />

	<!-- intermodal 2.1-->
	<line x1="288" y1="210" x2="500" y2="210" 
		stroke="skyblue" stroke-width="5" />

	<!-- intermodal 2.2-->
	<line x1="318" y1="240" x2="500" y2="240" 
		stroke="skyblue" stroke-width="5" />

	<!-- intermodal 2.3-->
	<line x1="348" y1="270" x2="470" y2="270" 
		stroke="skyblue" stroke-width="5" />


	<!-- reversing loop -->
	<line x1="225" y1="0" x2="225" y2="120" 
		stroke="blue" stroke-width="5" />

	
	<!-- inner main line -->
	<line x1="65" y1="0" x2="65" y2="125"
		stroke="black" stroke-width="10" />

	<path d="M120,180 a55,55 0 0,1 -55,-55" 
		fill="none" stroke="black" stroke-width="10" />

	<line x1="120" y1="180" x2="130" y2="180"
		stroke="black" stroke-width="10" />

	<path d=" M170,165 A55,55 0 0 1 130,180" 
		stroke="black" stroke-width="10"/>

	<!-- Diamond -->
	<line x1="223" y1="119" x2="169" y2="166" 
		stroke="black" stroke-width="10" />

	<line x1="220" y1="120" x2="520" y2="120" 
		stroke="black" stroke-width="10"/>

	<path d="M545,95 a25,25 0 0,1 -25,25" 
		fill="none" stroke="black" stroke-width="10" />

	
	<line x1="545" y1="0" x2="545" y2="95" 
		stroke="black" stroke-width="10" />

	
	<!-- outer main line -->
	<line x1="95" y1="0" x2="95" y2="125" 
		stroke="black" stroke-width="10" />

	<path d="M120,150 a25,25 0 0,1 -25,-25" 
		fill="none" stroke="black" stroke-width="10" />	

	<line x1="120" y1="150" x2="520" y2="150" 
		stroke="black" stroke-width="10" />

	<path d="M575,95 a55,55 0 0,1 -55,55" 
		fill="none" stroke="black" stroke-width="10" />	

	<line x1="575" y1="0" x2="575" y2="95" 
		stroke="black" stroke-width="10" />





	<!-- bumpers -->
	<line x1="10" y1="230" x2="10" y2="250" 
		stroke="skyblue" stroke-width="5" />

	<line x1="10" y1="260" x2="10" y2="280" 
		stroke="skyblue" stroke-width="5" />

	<!-- yard sidings end -->
		
	
	<g id="gleis0">
		<circle cx="365" cy="105" r="3.5" />
		<circle cx="425" cy="90" r="3.5" />

		<g transform='translate(390 70)' class="stop">
			<polygon points="0,12 12,12 
				12,7 15,7 15,5 12,5 
				12,0 4,0 0,4" />
			<circle cx="6" cy="6" r="3.5"  />
		</g>
	</g>

	<!-- Track 1 -->
	<circle cx="65" cy="30" r="3.5" fill="gray" id="graycirc" />
	<g id="gleis1_1">
		<circle cx="65" cy="60" r="3.5" />
		<circle cx="65" cy="90" r="3.5" />
		<circle cx="65" cy="120" r="3.5" />
		<!-- curve -->
		<circle cx="81" cy="164" r="3.5" />
		<!-- curve -->
		<circle cx="125" cy="180" r="3.5" />
	</g>
	<g id="gleis1_2">
		<circle cx="275" cy="120" r="3.5" />
		<circle cx="335" cy="120" r="3.5" />

		<g transform='translate(240 100)' class="stop">
			<polygon points="0,12 12,12 
				12,7 15,7 15,5 12,5 
				12,0 4,0 0,4" />
			<circle cx="6" cy="6" r="3.5"  />
		</g>
	</g>
	<g id="gleis1_3">
		<circle cx="365" cy="120" r="3.5" />
		<circle cx="425" cy="120" r="3.5" />
		<circle cx="455" cy="120" r="3.5" />

		<g transform='translate(390 100)' class="stop">
			<polygon points="0,12 12,12 
				12,7 15,7 15,5 12,5 
				12,0 4,0 0,4" />
			<circle cx="6" cy="6" r="3.5"  />
		</g>

		<g transform='translate(462 142) rotate(180)' class="stop">
			<polygon points="0,12 12,12 
				12,7 15,7 15,5 12,5 
				12,0 4,0 0,4" />
			<circle cx="6" cy="6" r="3.5" />
		</g>

	</g>
	<g id="gleis1_4">
		<circle cx="485" cy="120" r="3.5" />
		<circle cx="545" cy="90" r="3.5" />
		<circle cx="545" cy="60" r="3.5" />


		<g transform='translate(510 100)' class="stop">
			<polygon points="0,12 12,12 
				12,7 15,7 15,5 12,5 
				12,0 4,0 0,4" />
			<circle cx="6" cy="6" r="3.5" />
		</g>
	</g>

	<circle cx="245" cy="120" r="3.5" fill="green" />
	<circle cx="305" cy="120" r="3.5" fill="gray" />

	<!-- siding start-->


	<circle cx="395" cy="90" r="3.5" fill="green" />
	<circle cx="455" cy="90" r="3.5" fill="gray" />
	<!-- siding end -->
	
	<circle cx="395" cy="120" r="3.5" fill="green" />
	<g id="gleis12">
		<circle cx="485" cy="135" r="3.5" /><!-- cross over from 1 to 2 -->
	</g>
	<circle cx="515" cy="120" r="3.5" fill="green" />
	<circle cx="545" cy="30" r="3.5" fill="gray" />


	<!-- Outer loop start-->
	<circle cx="95" cy="30" r="3.5" fill="gray" />
	<g id="gleis2_1">
		<circle cx="95" cy="60" r="3.5" />
		<circle cx="95" cy="90" r="3.5" />
		<circle cx="95" cy="120" r="3.5" />
		<!-- curve -->
		<circle cx="125" cy="150" r="3.5" />
		<circle cx="155" cy="150" r="3.5" />
		<circle cx="185" cy="150" r="3.5" />
		<circle cx="215" cy="150" r="3.5" />
	</g>

	<g id="gleis2_2">
		<circle cx="245" cy="150" r="3.5" />
	</g>

	<circle cx="275" cy="150" r="3.5" fill="gray" />

	<g id="gleis2_3">
		<circle cx="305" cy="150" r="3.5" />
		<circle cx="365" cy="150" r="3.5" />
		<circle cx="455" cy="150" r="3.5" />

		<g transform='translate(330 130)' class="stop">
			<polygon points="0,12 12,12 
				12,7 15,7 15,5 12,5 
				12,0 4,0 0,4" />
			<circle cx="6" cy="6" r="3.5" />
		</g>

		<g transform='translate(432 170) rotate(180)' class="stop">
			<polygon points="0,12 12,12 
				12,7 15,7 15,5 12,5 
				12,0 4,0 0,4" />
			<circle cx="6" cy="6" r="3.5" />
		</g>
	</g>

	<g id="gleis2_4">
		<circle cx="485" cy="150" r="3.5"  />
	</g>

	<g id="gleis2_5">
		<circle cx="515" cy="150" r="3.5" />
		<circle cx="560" cy="133" r="3.5" />
		<circle cx="575" cy="90" r="3.5" />
		<circle cx="575" cy="60" r="3.5" />
	</g>
	

	<!-- siding start -->
	<g id="gleis3_1">
		<circle cx="305" cy="165" r="3.5" />
		<circle cx="365" cy="180" r="3.5" />


		<g transform='translate(330 160)' class="stop">
			<polygon points="0,12 12,12 
				12,7 15,7 15,5 12,5 
				12,0 4,0 0,4" />
			<circle cx="6" cy="6" r="3.5" />
		</g>
	</g>	

	<circle cx="335" cy="180" r="3.5" fill="green" />
	<circle cx="395" cy="180" r="3.5" fill="gray" />
	<circle cx="425" cy="180" r="3.5" fill="green" />

	<g id="gleis32">
		<circle cx="455" cy="165" r="3.5" /><!-- cross over-->
	</g>

	<g id="gleis3_2">
		<circle cx="455" cy="180" r="3.5" />

		<g transform='translate(480 160)' class="stop">
			<polygon points="0,12 12,12 
				12,7 15,7 15,5 12,5 
				12,0 4,0 0,4" />
			<circle cx="6" cy="6" r="3.5" />
		</g>
	</g>

	<circle cx="485" cy="180" r="3.5" fill="green" />
	<circle cx="515" cy="180" r="3.5" fill="gray" />
	<!--  siding end -->
	<circle cx="335" cy="150" r="3.5" fill="green" />
	<circle cx="395" cy="150" r="3.5" fill="gray" />
	<circle cx="425" cy="150" r="3.5" fill="green" />


	<circle cx="575" cy="30" r="3.5" fill="gray" />
	<!-- Outer loop end -->

	<!-- Yard start-->
	<circle cx="335" cy="210" r="3.5" fill="green" />
	<g id="gleis4">
		<circle cx="305" cy="210" r="3.5" />
		<circle cx="365" cy="210" r="3.5" />
		<circle cx="395" cy="210" r="3.5" />
		<circle cx="425" cy="210" r="3.5" />
		<circle cx="455" cy="210" r="3.5" />

		<g transform='translate(330 190)' class="stop">
			<polygon points="0,12 12,12 
				12,7 15,7 15,5 12,5 
				12,0 4,0 0,4" />
			<circle cx="6" cy="6" r="3.5"  />
		</g>
	</g>
	<circle cx="485" cy="210" r="3.5" fill="gray" />
	<circle cx="365" cy="240" r="3.5" fill="green" />

	<g id="gleis5">
		<circle cx="335" cy="240" r="3.5" />
		<circle cx="395" cy="240" r="3.5" />
		<circle cx="425" cy="240" r="3.5" />
		<circle cx="455" cy="240" r="3.5" />

		<g transform='translate(360 220)' class="stop">
			<polygon points="0,12 12,12 
				12,7 15,7 15,5 12,5 
				12,0 4,0 0,4" />
			<circle cx="6" cy="6" r="3.5"  />
		</g>
	</g>

	<g id="gleis6_1">	
		<circle cx="245" cy="165" r="3.5" />
		<circle cx="275" cy="195" r="3.5" />
	</g>
	<g id="gleis6_2">	
		<circle cx="305" cy="225" r="3.5" />
	</g>
		
	
	<g id="gleis6_3">
		<circle cx="335" cy="255" r="3.5" />
		<circle cx="365" cy="270" r="3.5" />
		<circle cx="425" cy="270" r="3.5" />

		<g transform='translate(390 250)' class="stop">
			<polygon points="0,12 12,12 
				12,7 15,7 15,5 12,5 
				12,0 4,0 0,4" />
			<circle cx="6" cy="6" r="3.5" />
		</g>
	</g>

	<circle cx="485" cy="240" r="3.5" fill="gray" />
	
	<circle cx="395" cy="270" r="3.5" fill="green" />
	
	<circle cx="455" cy="270" r="3.5" fill="gray" />
	<!-- Yard end -->

	<!-- Turn around-->
	<circle cx="225" cy="30" r="3.5" fill="gray" />
	<g id="gleis7">
		<circle cx="225" cy="60" r="3.5" />

		<g transform='translate(205 97) rotate(270)' class="stop">
			<polygon points="0,12 12,12 
				12,7 15,7 15,5 12,5 
				12,0 4,0 0,4" />
			<circle cx="6" cy="6" r="3.5" />
		</g>
	</g>
	<circle cx="225" cy="90" r="3.5" fill="green" />

	
	<!-- Non track holes -->
	
	<circle cx="375" cy="30" r="11" class="twtade" />
	<text x="360" y="50" class="small">Gleis 1, 0</text>
	<circle cx="425" cy="30" r="11" class="twtade" />
	<text x="410" y="50" class="small">Gleis 2, 3</text>
	<circle cx="475" cy="30" r="11" class="twtade" />
	<text x="460" y="50" class="small">Gleis 4, 5, 6</text>
	


	<!-- 12 x 12 proto type-->
	<!--
	<polygon points="0,12 12,12 
		12,7 15,7 15,5 12,5 
		12,0 4,0 0,4" />
	<circle cx="6" cy="6" r="3.5" fill="red" />
	-->


</svg>