<svg id="south" width="426" height="260">
	<style>

	g.powered circle.route {
		fill: #fb0 !important
	}
	
	g.unpowered circle.route {
		fill: #555;
		r : 3.5px;
	}

	/* As in power pack*/
	circle.pack {
		cursor: pointer;
		fill: yellow;
		r : 5px;
	}

	/* manual override push buttons to move switch */
	circle.manual {
		r : 3.5px;
		fill : lime
	}

	/* defaults to diverge */
	g.signal circle {
		fill : red
	}
	
	g.go circle {
		fill : yellowgreen
	}
	
	.small {
		font: 7px sans-serif;
	}
	.heavy {
		font: bold 9px sans-serif;
	}

	circle.twtade {
		fill:black
	}
	</style>



	<!-- mini panel -->
	
	<circle cx="60" cy="15" r="3" fill="red" />
	<text x="65" y="18" class="small">Arduino Reset</text>
	<circle cx="60" cy="35" r="3" fill="blue" />
	<text x="65" y="38" class="small">Test Panel</text>
	<circle cx="60" cy="55" r="3" fill="blue" />
	<text x="65" y="58" class="small">Alternate</text>
	

	<!-- yard sidings begin -->
	<line x1="209" y1="60" x2="270" y2="60" 
		stroke="dimgray" stroke-width="5" />

	<line x1="189" y1="80" x2="210" y2="60" 
		stroke="dimgray" stroke-width="5" />

	<!-- Track 3 -->
	<line x1="130" y1="100" x2="150" y2="120" 
		stroke="gold" stroke-width="5" />

	<line x1="270" y1="100" x2="250" y2="120" 
		stroke="gold" stroke-width="5" />

	<line x1="150" y1="120" x2="320" y2="120" 
		stroke="gold" stroke-width="5" />


	<!-- crossover-->
	<line x1="335" y1="100" x2="305" y2="80" 
		stroke="black" stroke-width="5" />


	<!-- intermodal connector -->
	<line x1="90" y1="100" x2="170" y2="180" 
		stroke="dodgerblue" stroke-width="5" />

	<!-- intermodal 4-->
	<line x1="128" y1="140" x2="280" y2="140" 
		stroke="dodgerblue" stroke-width="5" />

	<!-- intermodal 5-->
	<line x1="148" y1="160" x2="280" y2="160" 
		stroke="dodgerblue" stroke-width="5" />

	<!-- intermodal 6-->
	<line x1="168" y1="180" x2="250" y2="180" 
		stroke="dodgerblue" stroke-width="5" />


	<!-- reversing loop -->
	<path d="M120,55 a25,25 0 0,1 -25,25" 
		fill="none" stroke="green" stroke-width="5" />

	<line x1="120" y1="0" x2="120" y2="55" 
		stroke="green" stroke-width="5" />

	
	<!-- inner main line -->
	<line x1="20" y1="0" x2="20" y2="55"
		stroke="black" stroke-width="10" />

	<path d="M45,80 a25,25 0 0,1 -25,-25" 
		fill="none" stroke="black" stroke-width="10" />

	<line x1="45" y1="80" x2="335" y2="80" 
		stroke="black" stroke-width="10"/>

	<path d="M360,55 a25,25 0 0,1 -25,25" 
		fill="none" stroke="black" stroke-width="10" />

	<line x1="360" y1="0" x2="360" y2="55" 
		stroke="black" stroke-width="10" />

	
	<!-- outer main line -->
	<line x1="40" y1="0" x2="40" y2="75" 
		stroke="black" stroke-width="10" />

	<path d="M65,100 a25,25 0 0,1 -25,-25" 
		fill="none" stroke="black" stroke-width="10" />

	<line x1="63" y1="100" x2="355" y2="100" 
		stroke="black" stroke-width="10" />

	<path d="M380,75 a25,25 0 0,1 -25,25" 
		fill="none" stroke="black" stroke-width="10" />	

	<line x1="380" y1="0" x2="380" y2="75" 
		stroke="black" stroke-width="10" />


	<!-- bumpers -->
	<line x1="270" y1="55" x2="270" y2="65" 
		stroke="dimgray" stroke-width="3" />

	<line x1="320" y1="115" x2="320" y2="125" 
		stroke="gold" stroke-width="3" />

	<line x1="280" y1="135" x2="280" y2="145" 
		stroke="dodgerblue" stroke-width="3" />

	<line x1="280" y1="155" x2="280" y2="165" 
		stroke="dodgerblue" stroke-width="3" />

	<line x1="250" y1="175" x2="250" y2="185" 
		stroke="dodgerblue" stroke-width="3" />

	<!-- yard sidings end -->


	<!-- Track 1 -->
	<g id="gleis1_1" class="unpowered">
		<circle cx="20" cy="20" class="pack" />
		<circle cx="20" cy="40" class="route" />
		<circle cx="20" cy="60"  class="route" />
		<circle cx="60" cy="80"  class="route" />
		<circle cx="80" cy="80"  class="route" />
		<circle cx="100" cy="80"  class="route" />
		
	</g>

	<g id="gleis1_2" class="unpowered">
		<circle cx="120" cy="80"  class="route" />
		<circle cx="140" cy="80" class="manual" />
		<circle cx="160" cy="80" class="pack" />
		<circle cx="180" cy="80" class="route" />

		<circle cx="130" cy="70" r="3" fill="red" />
	</g>

	<g id="gleis1_3" class="unpowered">
		<circle cx="200" cy="80" class="route" />
		<circle cx="220" cy="80" class="manual" />
		<circle cx="240" cy="80" class="pack" />
		<circle cx="260" cy="80" class="route" />
		<circle cx="280" cy="80" class="manual" />
		<circle cx="300" cy="80" class="route" />

		<circle cx="210" cy="70" r="3" fill="red" />

	</g>

	<g id="gleis1_4" class="unpowered">
		<circle cx="320" cy="80" class="route" />
		<circle cx="340" cy="80" class="manual" />
		<circle cx="360" cy="60" class="route" />
		<circle cx="360" cy="40" class="route" />
		<circle cx="360" cy="20" class="pack" />

		<circle cx="330" cy="70" r="3" fill="red" />
	</g>



	<g id="gleis12" class="unpowered">
		<circle cx="320" cy="90" class="route" /><!-- cross over from 1 to 2 -->
	</g>

	<!-- Outer loop start-->
	<g id="gleis2_1" class="unpowered">
		<circle cx="40" cy="20" class="pack" />
		<circle cx="40" cy="40" class="route" />
		<circle cx="40" cy="60" class="route" />
		<circle cx="40" cy="80" class="route" />
		<!-- curve -->
		<circle cx="60" cy="100" class="route" />
		<circle cx="80" cy="100" class="route" />
		
	</g>

	<!-- This has no separate power -->
	<g id="gleis2_2" class="unpowered">
		<circle cx="100" cy="100" class="route" />
		<circle cx="120" cy="100" class="route" />

		<circle cx="110" cy="90" r="3" fill="red" />
	</g>


	<g id="gleis2_3" class="unpowered">
		<circle cx="140" cy="100" class="route" />
		<circle cx="160" cy="100" class="manual" />
		<circle cx="180" cy="100" class="route" />
		<circle cx="200" cy="100" class="pack" />
		<circle cx="220" cy="100" class="route" />
		<circle cx="240" cy="100" class="manual" />
		<circle cx="260" cy="100" class="route" />

		<circle cx="150" cy="90" r="3" fill="red" />
		<circle cx="250" cy="110" r="3" fill="red" />
	</g>

	<g id="gleis2_4" class="unpowered">
		<circle cx="280" cy="100" class="route" />
		<circle cx="300" cy="100" class="pack" />
		<circle cx="320" cy="100" class="route" />

		<circle cx="310" cy="110" r="3" fill="red" />
	</g>

	<g id="gleis2_5" class="unpowered">
		<circle cx="340" cy="100" class="route" />
		<circle cx="360" cy="100" class="manual" />
		<circle cx="380" cy="80" class="route" />
		<circle cx="380" cy="60" class="route" />
		<circle cx="380" cy="40" class="route" />
		<circle cx="380" cy="20" class="pack" />
	</g>
	

	<!-- siding start -->
	<g id="gleis3_1" class="unpowered">
		<circle cx="140" cy="110" class="route" />
		<circle cx="160" cy="120" class="manual" />
		<circle cx="180" cy="120" class="route" />
		<circle cx="200" cy="120" class="route" />
		<circle cx="220" cy="120" class="pack" />
		<circle cx="240" cy="120" class="route" />

		<circle cx="150" cy="110" r="3" fill="red" />
	</g>

	<g id="gleis32" class="unpowered">
		<circle cx="260" cy="110" class="route" /><!-- cross over-->

	</g>

	<g id="gleis3_2" class="unpowered">
		<circle cx="260" cy="120" class="route" />
		<circle cx="280" cy="120" class="manual" />
		<circle cx="300" cy="120" class="pack" />

		<circle cx="270" cy="110" r="3" fill="red" />
	</g>

	<!-- Outer loop end -->

	<!-- Yard start-->
	<g id="gleis4_1" class="unpowered">
		<circle cx="140" cy="140" class="route" />
		<circle cx="160" cy="140" class="manual" />
		<circle cx="180" cy="140" class="route" />
		<circle cx="200" cy="140" class="route" />
		<circle cx="220" cy="140" class="route" />
		<circle cx="240" cy="140" class="route" />
		<circle cx="260" cy="140" class="pack" />

		<circle cx="150" cy="130" r="3" fill="red" />
	</g>

	<g id="gleis5_1" class="unpowered">
		<circle cx="160" cy="160" class="route" />
		<circle cx="180" cy="160" class="manual" />
		<circle cx="200" cy="160" class="route" />
		<circle cx="220" cy="160" class="route" />
		<circle cx="240" cy="160" class="route" />
		<circle cx="260" cy="160" class="pack" />

		<circle cx="170" cy="150" r="3" fill="red" />
	</g>

	<g id="gleis6_1" class="unpowered">	
		<circle cx="100" cy="110" class="route" />

		<circle cx="120" cy="130" class="route" />
	</g>
	<g id="gleis6_2" class="unpowered">	
		<circle cx="140" cy="150" class="route" />
	</g>

	<g id="gleis6_3" class="unpowered">
		<circle cx="160" cy="170" class="route" />
		<circle cx="180" cy="180" class="manual" />
		<circle cx="200" cy="180" class="route" />
		<circle cx="220" cy="180" class="route" />
		<circle cx="240" cy="180" class="pack" />

		<circle cx="170" cy="170" r="3" fill="red" />
	</g>


	<g id="gleis7_1" class="unpowered">
		<circle cx="200" cy="70" class="route" />
		<circle cx="220" cy="60" class="manual" />
		<circle cx="240" cy="60" class="pack" />
		<circle cx="260" cy="60" class="route" />

		<circle cx="210" cy="50" r="3" fill="red" />
	</g>	
	<!-- Yard end -->

	<!-- Turn around-->
	<g id="gleis8_1" class="unpowered">
		<circle cx="120" cy="20" class="pack" />
		<circle cx="120" cy="40" class="manual" />
		<circle cx="120" cy="60" class="route" />

		<circle cx="110" cy="50" r="3" fill="red" />
	</g>
	

	
	<!-- Non track holes -->
	<!--
	<circle cx="375" cy="30" r="11" class="twtade" />
	<text x="360" y="50" class="small">Gleis 1, 0</text>
	<circle cx="425" cy="30" r="11" class="twtade" />
	<text x="410" y="50" class="small">Gleis 2, 3</text>
	<circle cx="475" cy="30" r="11" class="twtade" />
	<text x="460" y="50" class="small">Gleis 4, 5, 6</text>
	-->


</svg>