<?xml version="1.0" encoding="UTF-8" standalone="no"?>
<!-- Created with Inkscape (http://www.inkscape.org/) -->

<svg
   width="210mm"
   height="297mm"
   viewBox="0 0 210 297"
   version="1.1"
   id="svg5"
   inkscape:version="1.2.2 (732a01da63, 2022-12-09)"
   sodipodi:docname="Square with hole.svg"
   xmlns:inkscape="http://www.inkscape.org/namespaces/inkscape"
   xmlns:sodipodi="http://sodipodi.sourceforge.net/DTD/sodipodi-0.dtd"
   xmlns="http://www.w3.org/2000/svg"
   xmlns:svg="http://www.w3.org/2000/svg">
  <sodipodi:namedview
     id="namedview7"
     pagecolor="#ffffff"
     bordercolor="#000000"
     borderopacity="0.25"
     inkscape:showpageshadow="2"
     inkscape:pageopacity="0.0"
     inkscape:pagecheckerboard="0"
     inkscape:deskcolor="#d1d1d1"
     inkscape:document-units="mm"
     showgrid="false"
     inkscape:zoom="1.6870337"
     inkscape:cx="396.85039"
     inkscape:cy="421.15341"
     inkscape:window-width="1845"
     inkscape:window-height="1212"
     inkscape:window-x="-6"
     inkscape:window-y="-6"
     inkscape:window-maximized="1"
     inkscape:current-layer="layer1" />
  <defs
     id="defs2" />
  <g
     inkscape:label="Layer 1"
     inkscape:groupmode="layer"
     id="layer1">
    <rect
       style="fill:#000000;stroke-width:0.264583"
       id="rect273"
       width="95.041069"
       height="82.023903"
       x="37.483196"
       y="52.225536" />
    <circle
       style="fill:#000000;stroke-width:0.280946"
       id="path111"
       cx="90"
       cy="90"
       r="10" />
    <path
       style="fill:#ffffff;stroke-width:0.592756"
       d="m 336.68562,377.50438 c -5.13911,-0.75035 -8.5959,-1.78535 -13.00734,-3.89455 -9.48209,-4.53359 -17.33596,-14.27783 -19.95774,-24.76143 -1.41325,-5.65109 -0.89399,-15.56091 1.09518,-20.90093 5.39919,-14.49442 18.18303,-24.13288 33.35179,-25.1458 12.4147,-0.82902 25.69514,5.79098 32.89927,16.39954 4.06262,5.98246 5.8328,11.22024 6.32682,18.72033 0.87329,13.25796 -5.40319,25.80757 -16.67914,33.34938 -7.0766,4.73312 -16.88238,7.27689 -24.02884,6.23346 z"
       id="path346"
       transform="scale(0.26458333)" />
  </g>
</svg>
