<?xml version="1.0" encoding="UTF-8" standalone="no"?>
<svg
   id="top"
   width="426"
   height="73"
   version="1.1"
   xmlns="http://www.w3.org/2000/svg"
   xmlns:svg="http://www.w3.org/2000/svg">

<!-- 120mm inside front to back -->

<polyline points="
	13,10
	13,28
	10,28
	10,48
	13,48
	13,63

	33,63
	33,60
	73,60
	73,63
	113, 63
	113, 60
	153, 60
	153, 63
	193, 63
	193, 60
	233, 60
	233, 63
	273, 63
	273, 60
	313, 60
	313, 63
	353, 63
	353, 60
	393, 60
	393, 63
	413, 63
	413, 45
	416, 45
	416, 25
	413, 25
	413, 10
	13,10
"/>


</svg>